<mxfile host="app.diagrams.net" modified="2022-05-07T02:04:25.840Z" agent="5.0 (Macintosh; Intel Mac OS X 10_15_7) AppleWebKit/537.36 (KHTML, like Gecko) Chrome/101.0.4951.54 Safari/537.36" etag="YxVvHbGPqTdetqgEVA3v" version="18.0.1" type="github" pages="3">
  <diagram id="C5RBs43oDa-KdzZeNtuy" name="all">
    <mxGraphModel dx="946" dy="1682" grid="1" gridSize="10" guides="1" tooltips="1" connect="1" arrows="1" fold="1" page="1" pageScale="1" pageWidth="827" pageHeight="1169" math="0" shadow="0">
      <root>
        <mxCell id="WIyWlLk6GJQsqaUBKTNV-0" />
        <mxCell id="WIyWlLk6GJQsqaUBKTNV-1" parent="WIyWlLk6GJQsqaUBKTNV-0" />
        <mxCell id="DaFXscNUTRdYXwU_u2qZ-137" value="资产中台列表" style="rounded=0;whiteSpace=wrap;html=1;sketch=1;fillColor=#f8cecc;strokeColor=#b85450;" parent="WIyWlLk6GJQsqaUBKTNV-1" vertex="1">
          <mxGeometry x="464" y="110" width="204" height="30" as="geometry" />
        </mxCell>
        <mxCell id="DaFXscNUTRdYXwU_u2qZ-129" style="edgeStyle=orthogonalEdgeStyle;rounded=0;sketch=1;orthogonalLoop=1;jettySize=auto;html=1;entryX=0;entryY=0.5;entryDx=0;entryDy=0;strokeColor=#6c8ebf;fillColor=#dae8fc;" parent="WIyWlLk6GJQsqaUBKTNV-1" source="DaFXscNUTRdYXwU_u2qZ-31" target="DaFXscNUTRdYXwU_u2qZ-86" edge="1">
          <mxGeometry relative="1" as="geometry" />
        </mxCell>
        <mxCell id="DaFXscNUTRdYXwU_u2qZ-130" style="edgeStyle=orthogonalEdgeStyle;rounded=0;sketch=1;orthogonalLoop=1;jettySize=auto;html=1;entryX=0;entryY=0.5;entryDx=0;entryDy=0;strokeColor=#6c8ebf;fillColor=#dae8fc;" parent="WIyWlLk6GJQsqaUBKTNV-1" source="DaFXscNUTRdYXwU_u2qZ-31" target="DaFXscNUTRdYXwU_u2qZ-120" edge="1">
          <mxGeometry relative="1" as="geometry" />
        </mxCell>
        <mxCell id="DaFXscNUTRdYXwU_u2qZ-131" style="edgeStyle=orthogonalEdgeStyle;rounded=0;sketch=1;orthogonalLoop=1;jettySize=auto;html=1;entryX=0;entryY=0.5;entryDx=0;entryDy=0;strokeColor=#6c8ebf;fillColor=#dae8fc;" parent="WIyWlLk6GJQsqaUBKTNV-1" source="DaFXscNUTRdYXwU_u2qZ-31" target="DaFXscNUTRdYXwU_u2qZ-121" edge="1">
          <mxGeometry relative="1" as="geometry" />
        </mxCell>
        <mxCell id="DaFXscNUTRdYXwU_u2qZ-132" style="edgeStyle=orthogonalEdgeStyle;rounded=0;sketch=1;orthogonalLoop=1;jettySize=auto;html=1;entryX=0;entryY=0.5;entryDx=0;entryDy=0;strokeColor=#6c8ebf;fillColor=#dae8fc;" parent="WIyWlLk6GJQsqaUBKTNV-1" source="DaFXscNUTRdYXwU_u2qZ-31" target="DaFXscNUTRdYXwU_u2qZ-122" edge="1">
          <mxGeometry relative="1" as="geometry" />
        </mxCell>
        <mxCell id="DaFXscNUTRdYXwU_u2qZ-133" style="edgeStyle=orthogonalEdgeStyle;rounded=0;sketch=1;orthogonalLoop=1;jettySize=auto;html=1;entryX=0;entryY=0.5;entryDx=0;entryDy=0;strokeColor=#6c8ebf;fillColor=#dae8fc;" parent="WIyWlLk6GJQsqaUBKTNV-1" source="DaFXscNUTRdYXwU_u2qZ-31" target="DaFXscNUTRdYXwU_u2qZ-123" edge="1">
          <mxGeometry relative="1" as="geometry" />
        </mxCell>
        <mxCell id="DaFXscNUTRdYXwU_u2qZ-134" style="edgeStyle=orthogonalEdgeStyle;rounded=0;sketch=1;orthogonalLoop=1;jettySize=auto;html=1;entryX=0;entryY=0.5;entryDx=0;entryDy=0;strokeColor=#6c8ebf;fillColor=#dae8fc;" parent="WIyWlLk6GJQsqaUBKTNV-1" source="DaFXscNUTRdYXwU_u2qZ-31" target="DaFXscNUTRdYXwU_u2qZ-124" edge="1">
          <mxGeometry relative="1" as="geometry" />
        </mxCell>
        <mxCell id="DaFXscNUTRdYXwU_u2qZ-135" style="edgeStyle=orthogonalEdgeStyle;rounded=0;sketch=1;orthogonalLoop=1;jettySize=auto;html=1;entryX=0;entryY=0.5;entryDx=0;entryDy=0;strokeColor=#6c8ebf;fillColor=#dae8fc;" parent="WIyWlLk6GJQsqaUBKTNV-1" source="DaFXscNUTRdYXwU_u2qZ-31" target="DaFXscNUTRdYXwU_u2qZ-125" edge="1">
          <mxGeometry relative="1" as="geometry" />
        </mxCell>
        <mxCell id="DaFXscNUTRdYXwU_u2qZ-31" value="中台能力" style="rounded=0;whiteSpace=wrap;html=1;sketch=1;fillColor=#dae8fc;strokeColor=#6c8ebf;treeFolding=1;treeMoving=1;" parent="WIyWlLk6GJQsqaUBKTNV-1" vertex="1">
          <mxGeometry x="256" y="1261" width="100" height="30" as="geometry" />
        </mxCell>
        <mxCell id="DaFXscNUTRdYXwU_u2qZ-98" style="edgeStyle=orthogonalEdgeStyle;rounded=0;sketch=1;orthogonalLoop=1;jettySize=auto;html=1;entryX=0;entryY=0.5;entryDx=0;entryDy=0;strokeColor=#6c8ebf;fillColor=#dae8fc;" parent="WIyWlLk6GJQsqaUBKTNV-1" source="DaFXscNUTRdYXwU_u2qZ-29" target="DaFXscNUTRdYXwU_u2qZ-77" edge="1">
          <mxGeometry relative="1" as="geometry" />
        </mxCell>
        <mxCell id="DaFXscNUTRdYXwU_u2qZ-99" style="edgeStyle=orthogonalEdgeStyle;rounded=0;sketch=1;orthogonalLoop=1;jettySize=auto;html=1;entryX=0;entryY=0.5;entryDx=0;entryDy=0;strokeColor=#6c8ebf;fillColor=#dae8fc;" parent="WIyWlLk6GJQsqaUBKTNV-1" source="DaFXscNUTRdYXwU_u2qZ-29" target="DaFXscNUTRdYXwU_u2qZ-79" edge="1">
          <mxGeometry relative="1" as="geometry" />
        </mxCell>
        <mxCell id="DaFXscNUTRdYXwU_u2qZ-101" style="edgeStyle=orthogonalEdgeStyle;rounded=0;sketch=1;orthogonalLoop=1;jettySize=auto;html=1;entryX=0;entryY=0.5;entryDx=0;entryDy=0;strokeColor=#6c8ebf;fillColor=#dae8fc;" parent="WIyWlLk6GJQsqaUBKTNV-1" source="DaFXscNUTRdYXwU_u2qZ-29" target="DaFXscNUTRdYXwU_u2qZ-100" edge="1">
          <mxGeometry relative="1" as="geometry" />
        </mxCell>
        <mxCell id="DaFXscNUTRdYXwU_u2qZ-102" style="edgeStyle=orthogonalEdgeStyle;rounded=0;sketch=1;orthogonalLoop=1;jettySize=auto;html=1;entryX=0;entryY=0.5;entryDx=0;entryDy=0;strokeColor=#6c8ebf;fillColor=#dae8fc;" parent="WIyWlLk6GJQsqaUBKTNV-1" source="DaFXscNUTRdYXwU_u2qZ-29" target="DaFXscNUTRdYXwU_u2qZ-78" edge="1">
          <mxGeometry relative="1" as="geometry" />
        </mxCell>
        <mxCell id="DaFXscNUTRdYXwU_u2qZ-103" style="edgeStyle=orthogonalEdgeStyle;rounded=0;sketch=1;orthogonalLoop=1;jettySize=auto;html=1;entryX=0;entryY=0.5;entryDx=0;entryDy=0;strokeColor=#6c8ebf;fillColor=#dae8fc;" parent="WIyWlLk6GJQsqaUBKTNV-1" source="DaFXscNUTRdYXwU_u2qZ-29" target="DaFXscNUTRdYXwU_u2qZ-80" edge="1">
          <mxGeometry relative="1" as="geometry" />
        </mxCell>
        <mxCell id="DaFXscNUTRdYXwU_u2qZ-104" style="edgeStyle=orthogonalEdgeStyle;rounded=0;sketch=1;orthogonalLoop=1;jettySize=auto;html=1;entryX=0;entryY=0.5;entryDx=0;entryDy=0;strokeColor=#6c8ebf;fillColor=#dae8fc;" parent="WIyWlLk6GJQsqaUBKTNV-1" source="DaFXscNUTRdYXwU_u2qZ-29" target="DaFXscNUTRdYXwU_u2qZ-81" edge="1">
          <mxGeometry relative="1" as="geometry" />
        </mxCell>
        <mxCell id="DaFXscNUTRdYXwU_u2qZ-105" style="edgeStyle=orthogonalEdgeStyle;rounded=0;sketch=1;orthogonalLoop=1;jettySize=auto;html=1;entryX=0;entryY=0.5;entryDx=0;entryDy=0;strokeColor=#6c8ebf;fillColor=#dae8fc;" parent="WIyWlLk6GJQsqaUBKTNV-1" source="DaFXscNUTRdYXwU_u2qZ-29" target="DaFXscNUTRdYXwU_u2qZ-83" edge="1">
          <mxGeometry relative="1" as="geometry" />
        </mxCell>
        <mxCell id="DaFXscNUTRdYXwU_u2qZ-106" style="edgeStyle=orthogonalEdgeStyle;rounded=0;sketch=1;orthogonalLoop=1;jettySize=auto;html=1;entryX=0;entryY=0.5;entryDx=0;entryDy=0;strokeColor=#6c8ebf;fillColor=#dae8fc;" parent="WIyWlLk6GJQsqaUBKTNV-1" source="DaFXscNUTRdYXwU_u2qZ-29" target="DaFXscNUTRdYXwU_u2qZ-84" edge="1">
          <mxGeometry relative="1" as="geometry" />
        </mxCell>
        <mxCell id="DaFXscNUTRdYXwU_u2qZ-145" style="edgeStyle=orthogonalEdgeStyle;rounded=0;sketch=1;orthogonalLoop=1;jettySize=auto;html=1;entryX=0;entryY=0.5;entryDx=0;entryDy=0;strokeColor=#6c8ebf;fillColor=#dae8fc;" parent="WIyWlLk6GJQsqaUBKTNV-1" source="DaFXscNUTRdYXwU_u2qZ-29" target="DaFXscNUTRdYXwU_u2qZ-144" edge="1">
          <mxGeometry relative="1" as="geometry" />
        </mxCell>
        <mxCell id="DaFXscNUTRdYXwU_u2qZ-29" value="分类管理" style="rounded=0;whiteSpace=wrap;html=1;sketch=1;fillColor=#dae8fc;strokeColor=#6c8ebf;treeMoving=1;treeFolding=1;" parent="WIyWlLk6GJQsqaUBKTNV-1" vertex="1">
          <mxGeometry x="256" y="855.5" width="100" height="30" as="geometry" />
        </mxCell>
        <mxCell id="DaFXscNUTRdYXwU_u2qZ-92" style="edgeStyle=orthogonalEdgeStyle;rounded=0;sketch=1;orthogonalLoop=1;jettySize=auto;html=1;entryX=0;entryY=0.5;entryDx=0;entryDy=0;strokeColor=#6c8ebf;fillColor=#dae8fc;" parent="WIyWlLk6GJQsqaUBKTNV-1" source="DaFXscNUTRdYXwU_u2qZ-27" target="DaFXscNUTRdYXwU_u2qZ-76" edge="1">
          <mxGeometry relative="1" as="geometry" />
        </mxCell>
        <mxCell id="DaFXscNUTRdYXwU_u2qZ-93" style="edgeStyle=orthogonalEdgeStyle;rounded=0;sketch=1;orthogonalLoop=1;jettySize=auto;html=1;entryX=0;entryY=0.5;entryDx=0;entryDy=0;strokeColor=#6c8ebf;fillColor=#dae8fc;" parent="WIyWlLk6GJQsqaUBKTNV-1" source="DaFXscNUTRdYXwU_u2qZ-27" target="DaFXscNUTRdYXwU_u2qZ-75" edge="1">
          <mxGeometry relative="1" as="geometry" />
        </mxCell>
        <mxCell id="DaFXscNUTRdYXwU_u2qZ-27" value="库存管理" style="rounded=0;whiteSpace=wrap;html=1;sketch=1;fillColor=#dae8fc;strokeColor=#6c8ebf;treeMoving=1;treeFolding=1;" parent="WIyWlLk6GJQsqaUBKTNV-1" vertex="1">
          <mxGeometry x="256" y="517" width="100" height="30" as="geometry" />
        </mxCell>
        <mxCell id="DaFXscNUTRdYXwU_u2qZ-43" value="" style="edgeStyle=orthogonalEdgeStyle;rounded=0;sketch=1;orthogonalLoop=1;jettySize=auto;html=1;fillColor=#dae8fc;strokeColor=#6c8ebf;entryX=0;entryY=0.5;entryDx=0;entryDy=0;" parent="WIyWlLk6GJQsqaUBKTNV-1" source="DaFXscNUTRdYXwU_u2qZ-23" target="DaFXscNUTRdYXwU_u2qZ-137" edge="1">
          <mxGeometry relative="1" as="geometry">
            <mxPoint x="464" y="116" as="targetPoint" />
          </mxGeometry>
        </mxCell>
        <mxCell id="DaFXscNUTRdYXwU_u2qZ-70" style="edgeStyle=orthogonalEdgeStyle;rounded=0;sketch=1;orthogonalLoop=1;jettySize=auto;html=1;entryX=0;entryY=0.5;entryDx=0;entryDy=0;fillColor=#dae8fc;strokeColor=#6c8ebf;" parent="WIyWlLk6GJQsqaUBKTNV-1" source="DaFXscNUTRdYXwU_u2qZ-23" target="DaFXscNUTRdYXwU_u2qZ-69" edge="1">
          <mxGeometry relative="1" as="geometry" />
        </mxCell>
        <mxCell id="DaFXscNUTRdYXwU_u2qZ-88" style="edgeStyle=orthogonalEdgeStyle;rounded=0;sketch=1;orthogonalLoop=1;jettySize=auto;html=1;entryX=0;entryY=0.5;entryDx=0;entryDy=0;strokeColor=#6c8ebf;fillColor=#dae8fc;" parent="WIyWlLk6GJQsqaUBKTNV-1" source="DaFXscNUTRdYXwU_u2qZ-23" target="DaFXscNUTRdYXwU_u2qZ-71" edge="1">
          <mxGeometry relative="1" as="geometry" />
        </mxCell>
        <mxCell id="DaFXscNUTRdYXwU_u2qZ-89" style="edgeStyle=orthogonalEdgeStyle;rounded=0;sketch=1;orthogonalLoop=1;jettySize=auto;html=1;entryX=0;entryY=0.5;entryDx=0;entryDy=0;strokeColor=#6c8ebf;fillColor=#dae8fc;" parent="WIyWlLk6GJQsqaUBKTNV-1" source="DaFXscNUTRdYXwU_u2qZ-23" target="DaFXscNUTRdYXwU_u2qZ-72" edge="1">
          <mxGeometry relative="1" as="geometry" />
        </mxCell>
        <mxCell id="DaFXscNUTRdYXwU_u2qZ-90" style="edgeStyle=orthogonalEdgeStyle;rounded=0;sketch=1;orthogonalLoop=1;jettySize=auto;html=1;entryX=0;entryY=0.5;entryDx=0;entryDy=0;strokeColor=#6c8ebf;fillColor=#dae8fc;" parent="WIyWlLk6GJQsqaUBKTNV-1" source="DaFXscNUTRdYXwU_u2qZ-23" target="DaFXscNUTRdYXwU_u2qZ-73" edge="1">
          <mxGeometry relative="1" as="geometry" />
        </mxCell>
        <mxCell id="DaFXscNUTRdYXwU_u2qZ-91" style="edgeStyle=orthogonalEdgeStyle;rounded=0;sketch=1;orthogonalLoop=1;jettySize=auto;html=1;entryX=0;entryY=0.5;entryDx=0;entryDy=0;strokeColor=#6c8ebf;fillColor=#dae8fc;" parent="WIyWlLk6GJQsqaUBKTNV-1" source="DaFXscNUTRdYXwU_u2qZ-23" target="DaFXscNUTRdYXwU_u2qZ-74" edge="1">
          <mxGeometry relative="1" as="geometry" />
        </mxCell>
        <mxCell id="DaFXscNUTRdYXwU_u2qZ-23" value="数字资产仓库" style="rounded=0;whiteSpace=wrap;html=1;sketch=1;fillColor=#dae8fc;strokeColor=#6c8ebf;treeFolding=1;treeMoving=1;" parent="WIyWlLk6GJQsqaUBKTNV-1" vertex="1">
          <mxGeometry x="256" y="257" width="100" height="30" as="geometry" />
        </mxCell>
        <mxCell id="DaFXscNUTRdYXwU_u2qZ-35" style="edgeStyle=orthogonalEdgeStyle;rounded=0;sketch=1;orthogonalLoop=1;jettySize=auto;html=1;exitX=1;exitY=0.5;exitDx=0;exitDy=0;entryX=0;entryY=0.5;entryDx=0;entryDy=0;fillColor=#dae8fc;strokeColor=#6c8ebf;" parent="WIyWlLk6GJQsqaUBKTNV-1" source="DaFXscNUTRdYXwU_u2qZ-25" target="DaFXscNUTRdYXwU_u2qZ-18" edge="1">
          <mxGeometry relative="1" as="geometry" />
        </mxCell>
        <mxCell id="DaFXscNUTRdYXwU_u2qZ-25" value="登录模块" style="rounded=0;whiteSpace=wrap;html=1;sketch=1;fillColor=#dae8fc;strokeColor=#6c8ebf;treeMoving=1;treeFolding=1;" parent="WIyWlLk6GJQsqaUBKTNV-1" vertex="1">
          <mxGeometry x="256" y="-35" width="100" height="30" as="geometry" />
        </mxCell>
        <mxCell id="DaFXscNUTRdYXwU_u2qZ-24" value="" style="edgeStyle=orthogonalEdgeStyle;rounded=0;sketch=1;orthogonalLoop=1;jettySize=auto;html=1;entryX=0;entryY=0.5;entryDx=0;entryDy=0;fillColor=#ffe6cc;strokeColor=#d79b00;" parent="WIyWlLk6GJQsqaUBKTNV-1" source="DaFXscNUTRdYXwU_u2qZ-0" target="DaFXscNUTRdYXwU_u2qZ-23" edge="1">
          <mxGeometry relative="1" as="geometry" />
        </mxCell>
        <mxCell id="DaFXscNUTRdYXwU_u2qZ-26" value="" style="edgeStyle=orthogonalEdgeStyle;rounded=0;sketch=1;orthogonalLoop=1;jettySize=auto;html=1;entryX=0;entryY=0.5;entryDx=0;entryDy=0;fillColor=#ffe6cc;strokeColor=#d79b00;" parent="WIyWlLk6GJQsqaUBKTNV-1" source="DaFXscNUTRdYXwU_u2qZ-0" target="DaFXscNUTRdYXwU_u2qZ-25" edge="1">
          <mxGeometry relative="1" as="geometry" />
        </mxCell>
        <mxCell id="DaFXscNUTRdYXwU_u2qZ-30" value="" style="edgeStyle=orthogonalEdgeStyle;rounded=0;sketch=1;orthogonalLoop=1;jettySize=auto;html=1;entryX=0;entryY=0.5;entryDx=0;entryDy=0;fillColor=#ffe6cc;strokeColor=#d79b00;" parent="WIyWlLk6GJQsqaUBKTNV-1" source="DaFXscNUTRdYXwU_u2qZ-0" target="DaFXscNUTRdYXwU_u2qZ-29" edge="1">
          <mxGeometry relative="1" as="geometry" />
        </mxCell>
        <mxCell id="DaFXscNUTRdYXwU_u2qZ-32" value="" style="edgeStyle=orthogonalEdgeStyle;rounded=0;sketch=1;orthogonalLoop=1;jettySize=auto;html=1;entryX=0;entryY=0.5;entryDx=0;entryDy=0;fillColor=#ffe6cc;strokeColor=#d79b00;" parent="WIyWlLk6GJQsqaUBKTNV-1" source="DaFXscNUTRdYXwU_u2qZ-0" target="DaFXscNUTRdYXwU_u2qZ-31" edge="1">
          <mxGeometry relative="1" as="geometry" />
        </mxCell>
        <mxCell id="DaFXscNUTRdYXwU_u2qZ-87" style="edgeStyle=orthogonalEdgeStyle;rounded=0;sketch=1;orthogonalLoop=1;jettySize=auto;html=1;entryX=0;entryY=0.5;entryDx=0;entryDy=0;strokeColor=#d79b00;fillColor=#ffe6cc;" parent="WIyWlLk6GJQsqaUBKTNV-1" source="DaFXscNUTRdYXwU_u2qZ-0" target="DaFXscNUTRdYXwU_u2qZ-27" edge="1">
          <mxGeometry relative="1" as="geometry" />
        </mxCell>
        <mxCell id="DaFXscNUTRdYXwU_u2qZ-0" value="数字资产中心1.0" style="rounded=0;whiteSpace=wrap;html=1;sketch=1;fillColor=#ffe6cc;strokeColor=#d79b00;" parent="WIyWlLk6GJQsqaUBKTNV-1" vertex="1">
          <mxGeometry x="30" y="340" width="100" height="30" as="geometry" />
        </mxCell>
        <mxCell id="DaFXscNUTRdYXwU_u2qZ-8" style="edgeStyle=orthogonalEdgeStyle;rounded=0;sketch=1;orthogonalLoop=1;jettySize=auto;html=1;exitX=0.5;exitY=1;exitDx=0;exitDy=0;" parent="WIyWlLk6GJQsqaUBKTNV-1" edge="1">
          <mxGeometry relative="1" as="geometry">
            <mxPoint x="306" y="200" as="sourcePoint" />
            <mxPoint x="306" y="200" as="targetPoint" />
          </mxGeometry>
        </mxCell>
        <mxCell id="DaFXscNUTRdYXwU_u2qZ-39" value="" style="edgeStyle=orthogonalEdgeStyle;rounded=0;sketch=1;orthogonalLoop=1;jettySize=auto;html=1;entryX=0;entryY=0.5;entryDx=0;entryDy=0;fillColor=#f8cecc;strokeColor=#b85450;" parent="WIyWlLk6GJQsqaUBKTNV-1" source="DaFXscNUTRdYXwU_u2qZ-18" target="DaFXscNUTRdYXwU_u2qZ-38" edge="1">
          <mxGeometry relative="1" as="geometry" />
        </mxCell>
        <mxCell id="DaFXscNUTRdYXwU_u2qZ-41" value="" style="edgeStyle=orthogonalEdgeStyle;rounded=0;sketch=1;orthogonalLoop=1;jettySize=auto;html=1;fillColor=#f8cecc;strokeColor=#b85450;entryX=0;entryY=0.5;entryDx=0;entryDy=0;" parent="WIyWlLk6GJQsqaUBKTNV-1" source="DaFXscNUTRdYXwU_u2qZ-18" target="DaFXscNUTRdYXwU_u2qZ-40" edge="1">
          <mxGeometry relative="1" as="geometry">
            <mxPoint x="686" y="44.956521739130494" as="targetPoint" />
          </mxGeometry>
        </mxCell>
        <mxCell id="DaFXscNUTRdYXwU_u2qZ-18" value="Feature：INTS-3072 &lt;br&gt;嵌入EPWork登录模块" style="rounded=0;whiteSpace=wrap;html=1;sketch=1;fillColor=#f8cecc;strokeColor=#b85450;" parent="WIyWlLk6GJQsqaUBKTNV-1" vertex="1">
          <mxGeometry x="464" y="-50" width="206" height="60" as="geometry" />
        </mxCell>
        <mxCell id="DaFXscNUTRdYXwU_u2qZ-38" value="① Feature 权限自己控制 预计下期做" style="rounded=0;whiteSpace=wrap;html=1;sketch=1;fillColor=#e1d5e7;strokeColor=#9673a6;" parent="WIyWlLk6GJQsqaUBKTNV-1" vertex="1">
          <mxGeometry x="748" y="-90" width="204" height="40" as="geometry" />
        </mxCell>
        <mxCell id="DaFXscNUTRdYXwU_u2qZ-40" value="&lt;div class=&quot;okr-block-clipboard&quot;&gt;&lt;/div&gt;&lt;div&gt;&lt;span&gt;② 用户信息需获取人员架构、用户头像、LDAP信息&lt;/span&gt;&lt;br&gt;&lt;/div&gt;" style="rounded=0;whiteSpace=wrap;html=1;sketch=1;fillColor=#e1d5e7;strokeColor=#9673a6;" parent="WIyWlLk6GJQsqaUBKTNV-1" vertex="1">
          <mxGeometry x="748" width="214" height="50" as="geometry" />
        </mxCell>
        <mxCell id="DaFXscNUTRdYXwU_u2qZ-64" value="" style="edgeStyle=orthogonalEdgeStyle;rounded=0;sketch=1;orthogonalLoop=1;jettySize=auto;html=1;entryX=0;entryY=0.5;entryDx=0;entryDy=0;exitX=1;exitY=0.5;exitDx=0;exitDy=0;fillColor=#dae8fc;strokeColor=#6c8ebf;" parent="WIyWlLk6GJQsqaUBKTNV-1" source="DaFXscNUTRdYXwU_u2qZ-23" target="DaFXscNUTRdYXwU_u2qZ-63" edge="1">
          <mxGeometry relative="1" as="geometry" />
        </mxCell>
        <mxCell id="DaFXscNUTRdYXwU_u2qZ-47" value="" style="edgeStyle=orthogonalEdgeStyle;rounded=0;sketch=1;orthogonalLoop=1;jettySize=auto;html=1;exitX=1;exitY=0.5;exitDx=0;exitDy=0;fillColor=#f8cecc;strokeColor=#b85450;" parent="WIyWlLk6GJQsqaUBKTNV-1" source="DaFXscNUTRdYXwU_u2qZ-84" target="DaFXscNUTRdYXwU_u2qZ-46" edge="1">
          <mxGeometry relative="1" as="geometry">
            <mxPoint x="636" y="1000" as="sourcePoint" />
          </mxGeometry>
        </mxCell>
        <mxCell id="DaFXscNUTRdYXwU_u2qZ-49" value="" style="edgeStyle=orthogonalEdgeStyle;rounded=0;sketch=1;orthogonalLoop=1;jettySize=auto;html=1;entryX=0;entryY=0.5;entryDx=0;entryDy=0;fillColor=#e1d5e7;strokeColor=#9673a6;" parent="WIyWlLk6GJQsqaUBKTNV-1" source="DaFXscNUTRdYXwU_u2qZ-46" target="DaFXscNUTRdYXwU_u2qZ-48" edge="1">
          <mxGeometry relative="1" as="geometry" />
        </mxCell>
        <mxCell id="DaFXscNUTRdYXwU_u2qZ-51" value="" style="edgeStyle=orthogonalEdgeStyle;rounded=0;sketch=1;orthogonalLoop=1;jettySize=auto;html=1;entryX=0;entryY=0.5;entryDx=0;entryDy=0;fillColor=#e1d5e7;strokeColor=#9673a6;" parent="WIyWlLk6GJQsqaUBKTNV-1" source="DaFXscNUTRdYXwU_u2qZ-46" target="DaFXscNUTRdYXwU_u2qZ-50" edge="1">
          <mxGeometry relative="1" as="geometry" />
        </mxCell>
        <mxCell id="DaFXscNUTRdYXwU_u2qZ-53" value="" style="edgeStyle=orthogonalEdgeStyle;rounded=0;sketch=1;orthogonalLoop=1;jettySize=auto;html=1;entryX=0;entryY=0.5;entryDx=0;entryDy=0;fillColor=#e1d5e7;strokeColor=#9673a6;" parent="WIyWlLk6GJQsqaUBKTNV-1" source="DaFXscNUTRdYXwU_u2qZ-46" target="DaFXscNUTRdYXwU_u2qZ-52" edge="1">
          <mxGeometry relative="1" as="geometry" />
        </mxCell>
        <mxCell id="DaFXscNUTRdYXwU_u2qZ-55" value="" style="edgeStyle=orthogonalEdgeStyle;rounded=0;sketch=1;orthogonalLoop=1;jettySize=auto;html=1;entryX=0;entryY=0.5;entryDx=0;entryDy=0;fillColor=#e1d5e7;strokeColor=#9673a6;" parent="WIyWlLk6GJQsqaUBKTNV-1" source="DaFXscNUTRdYXwU_u2qZ-46" target="DaFXscNUTRdYXwU_u2qZ-54" edge="1">
          <mxGeometry relative="1" as="geometry" />
        </mxCell>
        <mxCell id="DaFXscNUTRdYXwU_u2qZ-57" style="edgeStyle=orthogonalEdgeStyle;rounded=0;sketch=1;orthogonalLoop=1;jettySize=auto;html=1;entryX=0;entryY=0.5;entryDx=0;entryDy=0;fillColor=#e1d5e7;strokeColor=#9673a6;" parent="WIyWlLk6GJQsqaUBKTNV-1" source="DaFXscNUTRdYXwU_u2qZ-46" target="DaFXscNUTRdYXwU_u2qZ-56" edge="1">
          <mxGeometry relative="1" as="geometry" />
        </mxCell>
        <mxCell id="DaFXscNUTRdYXwU_u2qZ-46" value="类型" style="rounded=0;whiteSpace=wrap;html=1;sketch=1;fillColor=#e1d5e7;strokeColor=#9673a6;" parent="WIyWlLk6GJQsqaUBKTNV-1" vertex="1">
          <mxGeometry x="730" y="985" width="90" height="35" as="geometry" />
        </mxCell>
        <mxCell id="DaFXscNUTRdYXwU_u2qZ-48" value="贴图(Surface)(SF)" style="rounded=0;whiteSpace=wrap;html=1;sketch=1;fillColor=#d5e8d4;strokeColor=#82b366;" parent="WIyWlLk6GJQsqaUBKTNV-1" vertex="1">
          <mxGeometry x="880" y="887.5" width="110" height="35" as="geometry" />
        </mxCell>
        <mxCell id="DaFXscNUTRdYXwU_u2qZ-50" value="笔刷(Brushes)(*BS)" style="rounded=0;whiteSpace=wrap;html=1;sketch=1;fillColor=#d5e8d4;strokeColor=#82b366;" parent="WIyWlLk6GJQsqaUBKTNV-1" vertex="1">
          <mxGeometry x="880" y="937.5" width="110" height="35" as="geometry" />
        </mxCell>
        <mxCell id="DaFXscNUTRdYXwU_u2qZ-52" value="透贴(Films)(*FM)" style="rounded=0;whiteSpace=wrap;html=1;sketch=1;fillColor=#d5e8d4;strokeColor=#82b366;" parent="WIyWlLk6GJQsqaUBKTNV-1" vertex="1">
          <mxGeometry x="880" y="985" width="110" height="35" as="geometry" />
        </mxCell>
        <mxCell id="DaFXscNUTRdYXwU_u2qZ-54" value="3D模型(Model)(MD)" style="rounded=0;whiteSpace=wrap;html=1;sketch=1;fillColor=#d5e8d4;strokeColor=#82b366;" parent="WIyWlLk6GJQsqaUBKTNV-1" vertex="1">
          <mxGeometry x="880" y="1032.5" width="110" height="35" as="geometry" />
        </mxCell>
        <mxCell id="DaFXscNUTRdYXwU_u2qZ-56" value="&lt;span style=&quot;font-size: 13px&quot;&gt;(Comp)(*CP)&lt;/span&gt;" style="rounded=0;whiteSpace=wrap;html=1;sketch=1;fillColor=#d5e8d4;strokeColor=#82b366;" parent="WIyWlLk6GJQsqaUBKTNV-1" vertex="1">
          <mxGeometry x="880" y="1077.5" width="110" height="35" as="geometry" />
        </mxCell>
        <mxCell id="DaFXscNUTRdYXwU_u2qZ-63" value="“资产包详情”页" style="rounded=0;whiteSpace=wrap;html=1;sketch=1;fillColor=#f8cecc;strokeColor=#b85450;" parent="WIyWlLk6GJQsqaUBKTNV-1" vertex="1">
          <mxGeometry x="464" y="157" width="204" height="30" as="geometry" />
        </mxCell>
        <mxCell id="DaFXscNUTRdYXwU_u2qZ-68" style="edgeStyle=orthogonalEdgeStyle;sketch=1;orthogonalLoop=1;jettySize=auto;html=1;entryX=1;entryY=0.5;entryDx=0;entryDy=0;strokeColor=#666666;rounded=0;fillColor=#f5f5f5;dashed=1;" parent="WIyWlLk6GJQsqaUBKTNV-1" source="DaFXscNUTRdYXwU_u2qZ-67" target="DaFXscNUTRdYXwU_u2qZ-137" edge="1">
          <mxGeometry relative="1" as="geometry">
            <mxPoint x="668" y="116" as="targetPoint" />
          </mxGeometry>
        </mxCell>
        <mxCell id="DaFXscNUTRdYXwU_u2qZ-67" value="&lt;div&gt;Feature：INTS-2745&amp;nbsp;&lt;/div&gt;&lt;div&gt;支持查看资产中台中存储的全量数据&lt;/div&gt;" style="rounded=0;whiteSpace=wrap;html=1;dashed=1;disableMultiStrokeFill=0;fillColor=#f5f5f5;fontColor=#333333;strokeColor=#666666;" parent="WIyWlLk6GJQsqaUBKTNV-1" vertex="1">
          <mxGeometry x="790" y="80" width="240" height="40" as="geometry" />
        </mxCell>
        <mxCell id="DaFXscNUTRdYXwU_u2qZ-69" value="资产编辑" style="rounded=0;whiteSpace=wrap;html=1;sketch=1;fillColor=#f8cecc;strokeColor=#b85450;" parent="WIyWlLk6GJQsqaUBKTNV-1" vertex="1">
          <mxGeometry x="464" y="203" width="204" height="30" as="geometry" />
        </mxCell>
        <mxCell id="DaFXscNUTRdYXwU_u2qZ-71" value="&quot;数字资产&quot;储存文件替换" style="rounded=0;whiteSpace=wrap;html=1;sketch=1;fillColor=#f8cecc;strokeColor=#b85450;" parent="WIyWlLk6GJQsqaUBKTNV-1" vertex="1">
          <mxGeometry x="464" y="250" width="204" height="30" as="geometry" />
        </mxCell>
        <mxCell id="DaFXscNUTRdYXwU_u2qZ-72" value="图片预览区图片上传" style="rounded=0;whiteSpace=wrap;html=1;sketch=1;fillColor=#f8cecc;strokeColor=#b85450;" parent="WIyWlLk6GJQsqaUBKTNV-1" vertex="1">
          <mxGeometry x="464" y="344" width="204" height="30" as="geometry" />
        </mxCell>
        <mxCell id="DaFXscNUTRdYXwU_u2qZ-73" value="图片预览区图片删除" style="rounded=0;whiteSpace=wrap;html=1;sketch=1;fillColor=#f8cecc;strokeColor=#b85450;" parent="WIyWlLk6GJQsqaUBKTNV-1" vertex="1">
          <mxGeometry x="464" y="390" width="204" height="30" as="geometry" />
        </mxCell>
        <mxCell id="DaFXscNUTRdYXwU_u2qZ-74" value="资产变更历史" style="rounded=0;whiteSpace=wrap;html=1;sketch=1;fillColor=#f8cecc;strokeColor=#b85450;" parent="WIyWlLk6GJQsqaUBKTNV-1" vertex="1">
          <mxGeometry x="464" y="437" width="204" height="30" as="geometry" />
        </mxCell>
        <mxCell id="DaFXscNUTRdYXwU_u2qZ-75" value="变更记录列表(支持条件搜索)" style="rounded=0;whiteSpace=wrap;html=1;sketch=1;fillColor=#f8cecc;strokeColor=#b85450;" parent="WIyWlLk6GJQsqaUBKTNV-1" vertex="1">
          <mxGeometry x="464" y="540" width="204" height="30" as="geometry" />
        </mxCell>
        <mxCell id="DaFXscNUTRdYXwU_u2qZ-76" value="入库记录列表(支持条件搜索)" style="rounded=0;whiteSpace=wrap;html=1;sketch=1;fillColor=#f8cecc;strokeColor=#b85450;" parent="WIyWlLk6GJQsqaUBKTNV-1" vertex="1">
          <mxGeometry x="464" y="490" width="204" height="30" as="geometry" />
        </mxCell>
        <mxCell id="DaFXscNUTRdYXwU_u2qZ-77" value="新增类目/新增子类目" style="rounded=0;whiteSpace=wrap;html=1;sketch=1;fillColor=#f8cecc;strokeColor=#b85450;" parent="WIyWlLk6GJQsqaUBKTNV-1" vertex="1">
          <mxGeometry x="464" y="710" width="204" height="30" as="geometry" />
        </mxCell>
        <mxCell id="DaFXscNUTRdYXwU_u2qZ-78" value="删除" style="rounded=0;whiteSpace=wrap;html=1;sketch=1;fillColor=#f8cecc;strokeColor=#b85450;" parent="WIyWlLk6GJQsqaUBKTNV-1" vertex="1">
          <mxGeometry x="464" y="790" width="204" height="30" as="geometry" />
        </mxCell>
        <mxCell id="DaFXscNUTRdYXwU_u2qZ-79" value="编辑" style="rounded=0;whiteSpace=wrap;html=1;sketch=1;fillColor=#f8cecc;strokeColor=#b85450;" parent="WIyWlLk6GJQsqaUBKTNV-1" vertex="1">
          <mxGeometry x="464" y="750" width="204" height="30" as="geometry" />
        </mxCell>
        <mxCell id="DaFXscNUTRdYXwU_u2qZ-80" value="详情" style="rounded=0;whiteSpace=wrap;html=1;sketch=1;fillColor=#f8cecc;strokeColor=#b85450;" parent="WIyWlLk6GJQsqaUBKTNV-1" vertex="1">
          <mxGeometry x="464" y="830" width="204" height="30" as="geometry" />
        </mxCell>
        <mxCell id="DaFXscNUTRdYXwU_u2qZ-81" value="&lt;span&gt;后台分类明细页&lt;/span&gt;" style="rounded=0;whiteSpace=wrap;html=1;sketch=1;fillColor=#f8cecc;strokeColor=#b85450;" parent="WIyWlLk6GJQsqaUBKTNV-1" vertex="1">
          <mxGeometry x="464" y="885" width="204" height="30" as="geometry" />
        </mxCell>
        <mxCell id="DaFXscNUTRdYXwU_u2qZ-83" value="资产类型列表" style="rounded=0;whiteSpace=wrap;html=1;sketch=1;fillColor=#f8cecc;strokeColor=#b85450;" parent="WIyWlLk6GJQsqaUBKTNV-1" vertex="1">
          <mxGeometry x="464" y="938.5" width="204" height="30" as="geometry" />
        </mxCell>
        <mxCell id="DaFXscNUTRdYXwU_u2qZ-84" value="资产类型新增" style="rounded=0;whiteSpace=wrap;html=1;sketch=1;fillColor=#f8cecc;strokeColor=#b85450;" parent="WIyWlLk6GJQsqaUBKTNV-1" vertex="1">
          <mxGeometry x="464" y="987.5" width="204" height="30" as="geometry" />
        </mxCell>
        <mxCell id="DaFXscNUTRdYXwU_u2qZ-86" value="资产基础信息查询接口" style="rounded=0;whiteSpace=wrap;html=1;sketch=1;fillColor=#f8cecc;strokeColor=#b85450;" parent="WIyWlLk6GJQsqaUBKTNV-1" vertex="1">
          <mxGeometry x="464" y="1139" width="204" height="30" as="geometry" />
        </mxCell>
        <mxCell id="DaFXscNUTRdYXwU_u2qZ-95" style="edgeStyle=orthogonalEdgeStyle;rounded=0;sketch=1;orthogonalLoop=1;jettySize=auto;html=1;entryX=1;entryY=0.5;entryDx=0;entryDy=0;strokeColor=#666666;dashed=1;fillColor=#f5f5f5;" parent="WIyWlLk6GJQsqaUBKTNV-1" source="DaFXscNUTRdYXwU_u2qZ-94" target="DaFXscNUTRdYXwU_u2qZ-71" edge="1">
          <mxGeometry relative="1" as="geometry" />
        </mxCell>
        <mxCell id="DaFXscNUTRdYXwU_u2qZ-94" value="Feature：INTS-2747 &lt;br&gt;支持对数字资产存储文件的更新" style="rounded=0;whiteSpace=wrap;html=1;dashed=1;disableMultiStrokeFill=0;fillColor=#f5f5f5;fontColor=#333333;strokeColor=#666666;" parent="WIyWlLk6GJQsqaUBKTNV-1" vertex="1">
          <mxGeometry x="800" y="240" width="180" height="60" as="geometry" />
        </mxCell>
        <mxCell id="DaFXscNUTRdYXwU_u2qZ-97" style="edgeStyle=orthogonalEdgeStyle;rounded=0;sketch=1;orthogonalLoop=1;jettySize=auto;html=1;entryX=1;entryY=0.5;entryDx=0;entryDy=0;strokeColor=#666666;dashed=1;fillColor=#f5f5f5;" parent="WIyWlLk6GJQsqaUBKTNV-1" source="DaFXscNUTRdYXwU_u2qZ-96" target="DaFXscNUTRdYXwU_u2qZ-76" edge="1">
          <mxGeometry relative="1" as="geometry" />
        </mxCell>
        <mxCell id="DaFXscNUTRdYXwU_u2qZ-96" value="Feature：INTS-2746 &lt;br&gt;支持查看AMP中入库资产的记录" style="rounded=0;whiteSpace=wrap;html=1;dashed=1;disableMultiStrokeFill=0;fillColor=#f5f5f5;fontColor=#333333;strokeColor=#666666;" parent="WIyWlLk6GJQsqaUBKTNV-1" vertex="1">
          <mxGeometry x="800" y="487.5" width="180" height="35" as="geometry" />
        </mxCell>
        <mxCell id="DaFXscNUTRdYXwU_u2qZ-100" value="类目 tree" style="rounded=0;whiteSpace=wrap;html=1;sketch=1;fillColor=#f8cecc;strokeColor=#b85450;" parent="WIyWlLk6GJQsqaUBKTNV-1" vertex="1">
          <mxGeometry x="464" y="670" width="204" height="30" as="geometry" />
        </mxCell>
        <mxCell id="DaFXscNUTRdYXwU_u2qZ-111" style="edgeStyle=orthogonalEdgeStyle;rounded=0;sketch=1;orthogonalLoop=1;jettySize=auto;html=1;entryX=1;entryY=0.5;entryDx=0;entryDy=0;strokeColor=#666666;dashed=1;fillColor=#f5f5f5;" parent="WIyWlLk6GJQsqaUBKTNV-1" source="DaFXscNUTRdYXwU_u2qZ-110" target="DaFXscNUTRdYXwU_u2qZ-77" edge="1">
          <mxGeometry relative="1" as="geometry" />
        </mxCell>
        <mxCell id="DaFXscNUTRdYXwU_u2qZ-112" style="edgeStyle=orthogonalEdgeStyle;rounded=0;sketch=1;orthogonalLoop=1;jettySize=auto;html=1;entryX=1;entryY=0.5;entryDx=0;entryDy=0;strokeColor=#666666;dashed=1;fillColor=#f5f5f5;" parent="WIyWlLk6GJQsqaUBKTNV-1" source="DaFXscNUTRdYXwU_u2qZ-110" target="DaFXscNUTRdYXwU_u2qZ-79" edge="1">
          <mxGeometry relative="1" as="geometry" />
        </mxCell>
        <mxCell id="DaFXscNUTRdYXwU_u2qZ-110" value="唯一校验" style="rounded=0;whiteSpace=wrap;html=1;dashed=1;disableMultiStrokeFill=0;fillColor=#f5f5f5;fontColor=#333333;strokeColor=#666666;" parent="WIyWlLk6GJQsqaUBKTNV-1" vertex="1">
          <mxGeometry x="760" y="730" width="120" height="30" as="geometry" />
        </mxCell>
        <mxCell id="DaFXscNUTRdYXwU_u2qZ-114" style="edgeStyle=orthogonalEdgeStyle;rounded=0;sketch=1;orthogonalLoop=1;jettySize=auto;html=1;entryX=1;entryY=0.5;entryDx=0;entryDy=0;strokeColor=#666666;dashed=1;fillColor=#f5f5f5;" parent="WIyWlLk6GJQsqaUBKTNV-1" source="DaFXscNUTRdYXwU_u2qZ-113" target="DaFXscNUTRdYXwU_u2qZ-100" edge="1">
          <mxGeometry relative="1" as="geometry" />
        </mxCell>
        <mxCell id="DaFXscNUTRdYXwU_u2qZ-113" value="Feature：INTS-2763&lt;br&gt;&amp;nbsp;支持配置数字资产的分类" style="rounded=0;whiteSpace=wrap;html=1;dashed=1;disableMultiStrokeFill=0;fillColor=#f5f5f5;fontColor=#333333;strokeColor=#666666;" parent="WIyWlLk6GJQsqaUBKTNV-1" vertex="1">
          <mxGeometry x="760" y="624" width="170" height="40" as="geometry" />
        </mxCell>
        <mxCell id="DaFXscNUTRdYXwU_u2qZ-116" style="edgeStyle=orthogonalEdgeStyle;rounded=0;sketch=1;orthogonalLoop=1;jettySize=auto;html=1;entryX=1;entryY=0.5;entryDx=0;entryDy=0;strokeColor=#666666;dashed=1;fillColor=#f5f5f5;" parent="WIyWlLk6GJQsqaUBKTNV-1" source="DaFXscNUTRdYXwU_u2qZ-115" target="DaFXscNUTRdYXwU_u2qZ-78" edge="1">
          <mxGeometry relative="1" as="geometry" />
        </mxCell>
        <mxCell id="DaFXscNUTRdYXwU_u2qZ-115" value="验证挂靠" style="rounded=0;whiteSpace=wrap;html=1;dashed=1;disableMultiStrokeFill=0;fillColor=#f5f5f5;fontColor=#333333;strokeColor=#666666;" parent="WIyWlLk6GJQsqaUBKTNV-1" vertex="1">
          <mxGeometry x="760" y="790" width="120" height="30" as="geometry" />
        </mxCell>
        <mxCell id="DaFXscNUTRdYXwU_u2qZ-119" style="edgeStyle=orthogonalEdgeStyle;rounded=0;sketch=1;orthogonalLoop=1;jettySize=auto;html=1;entryX=0.5;entryY=0;entryDx=0;entryDy=0;strokeColor=#666666;dashed=1;fillColor=#f5f5f5;" parent="WIyWlLk6GJQsqaUBKTNV-1" source="DaFXscNUTRdYXwU_u2qZ-118" target="DaFXscNUTRdYXwU_u2qZ-46" edge="1">
          <mxGeometry relative="1" as="geometry" />
        </mxCell>
        <mxCell id="DaFXscNUTRdYXwU_u2qZ-118" value="唯一校验" style="rounded=0;whiteSpace=wrap;html=1;dashed=1;disableMultiStrokeFill=0;fillColor=#f5f5f5;fontColor=#333333;strokeColor=#666666;" parent="WIyWlLk6GJQsqaUBKTNV-1" vertex="1">
          <mxGeometry x="715" y="922.5" width="120" height="30" as="geometry" />
        </mxCell>
        <mxCell id="DaFXscNUTRdYXwU_u2qZ-120" value="资产类型修改" style="rounded=0;whiteSpace=wrap;html=1;sketch=1;fillColor=#f8cecc;strokeColor=#b85450;" parent="WIyWlLk6GJQsqaUBKTNV-1" vertex="1">
          <mxGeometry x="464" y="1183.5" width="204" height="30" as="geometry" />
        </mxCell>
        <mxCell id="DaFXscNUTRdYXwU_u2qZ-121" value="资产尺寸查询" style="rounded=0;whiteSpace=wrap;html=1;sketch=1;fillColor=#f8cecc;strokeColor=#b85450;" parent="WIyWlLk6GJQsqaUBKTNV-1" vertex="1">
          <mxGeometry x="464" y="1231" width="204" height="30" as="geometry" />
        </mxCell>
        <mxCell id="DaFXscNUTRdYXwU_u2qZ-122" value="资产尺寸修改" style="rounded=0;whiteSpace=wrap;html=1;sketch=1;fillColor=#f8cecc;strokeColor=#b85450;" parent="WIyWlLk6GJQsqaUBKTNV-1" vertex="1">
          <mxGeometry x="464" y="1278" width="204" height="30" as="geometry" />
        </mxCell>
        <mxCell id="DaFXscNUTRdYXwU_u2qZ-123" value="是否封闭" style="rounded=0;whiteSpace=wrap;html=1;sketch=1;fillColor=#f8cecc;strokeColor=#b85450;" parent="WIyWlLk6GJQsqaUBKTNV-1" vertex="1">
          <mxGeometry x="464" y="1329" width="204" height="30" as="geometry" />
        </mxCell>
        <mxCell id="DaFXscNUTRdYXwU_u2qZ-124" value="资产查询(中英文名称)" style="rounded=0;whiteSpace=wrap;html=1;sketch=1;fillColor=#f8cecc;strokeColor=#b85450;" parent="WIyWlLk6GJQsqaUBKTNV-1" vertex="1">
          <mxGeometry x="464" y="1379" width="204" height="30" as="geometry" />
        </mxCell>
        <mxCell id="DaFXscNUTRdYXwU_u2qZ-125" value="资产重置状态查询" style="rounded=0;whiteSpace=wrap;html=1;sketch=1;fillColor=#f8cecc;strokeColor=#b85450;" parent="WIyWlLk6GJQsqaUBKTNV-1" vertex="1">
          <mxGeometry x="464" y="1429" width="204" height="30" as="geometry" />
        </mxCell>
        <mxCell id="DaFXscNUTRdYXwU_u2qZ-128" style="edgeStyle=orthogonalEdgeStyle;rounded=0;sketch=1;orthogonalLoop=1;jettySize=auto;html=1;entryX=1;entryY=0.5;entryDx=0;entryDy=0;strokeColor=#666666;dashed=1;fillColor=#f5f5f5;" parent="WIyWlLk6GJQsqaUBKTNV-1" source="DaFXscNUTRdYXwU_u2qZ-127" target="DaFXscNUTRdYXwU_u2qZ-86" edge="1">
          <mxGeometry relative="1" as="geometry" />
        </mxCell>
        <mxCell id="DaFXscNUTRdYXwU_u2qZ-127" value="Feature：INTS-3264 &lt;br&gt;数字资产中心v1.0需要提供给AOP的信息" style="rounded=0;whiteSpace=wrap;html=1;dashed=1;disableMultiStrokeFill=0;fillColor=#f5f5f5;fontColor=#333333;strokeColor=#666666;" parent="WIyWlLk6GJQsqaUBKTNV-1" vertex="1">
          <mxGeometry x="760" y="1139" width="140" height="51" as="geometry" />
        </mxCell>
        <mxCell id="DaFXscNUTRdYXwU_u2qZ-141" style="edgeStyle=orthogonalEdgeStyle;rounded=0;sketch=1;orthogonalLoop=1;jettySize=auto;html=1;entryX=1;entryY=0.5;entryDx=0;entryDy=0;dashed=1;strokeColor=#666666;fillColor=#f5f5f5;" parent="WIyWlLk6GJQsqaUBKTNV-1" source="DaFXscNUTRdYXwU_u2qZ-136" target="DaFXscNUTRdYXwU_u2qZ-137" edge="1">
          <mxGeometry relative="1" as="geometry" />
        </mxCell>
        <mxCell id="DaFXscNUTRdYXwU_u2qZ-136" value="&lt;span style=&quot;color: rgb(0 , 0 , 0)&quot;&gt;支持类型/分类/尺寸搜索&lt;br&gt;全局搜索[内部ID/资产名称]&lt;/span&gt;" style="rounded=0;whiteSpace=wrap;html=1;dashed=1;disableMultiStrokeFill=0;fillColor=#f5f5f5;fontColor=#333333;strokeColor=#666666;" parent="WIyWlLk6GJQsqaUBKTNV-1" vertex="1">
          <mxGeometry x="790" y="140" width="220" height="40" as="geometry" />
        </mxCell>
        <mxCell id="DaFXscNUTRdYXwU_u2qZ-144" value="&lt;div&gt;编辑(仅限排序字段)&lt;/div&gt;" style="rounded=0;whiteSpace=wrap;html=1;sketch=1;fillColor=#f8cecc;strokeColor=#b85450;" parent="WIyWlLk6GJQsqaUBKTNV-1" vertex="1">
          <mxGeometry x="464" y="1034" width="204" height="30" as="geometry" />
        </mxCell>
        <mxCell id="DaFXscNUTRdYXwU_u2qZ-151" value="Epic" style="rounded=0;whiteSpace=wrap;html=1;sketch=1;fillColor=#dae8fc;strokeColor=#6c8ebf;disableMultiStrokeFill=0;" parent="WIyWlLk6GJQsqaUBKTNV-1" vertex="1">
          <mxGeometry x="340" y="1570" width="50" height="20" as="geometry" />
        </mxCell>
        <mxCell id="DaFXscNUTRdYXwU_u2qZ-152" value="api/service" style="rounded=0;whiteSpace=wrap;html=1;sketch=1;fillColor=#f8cecc;strokeColor=#b85450;disableMultiStrokeFill=0;" parent="WIyWlLk6GJQsqaUBKTNV-1" vertex="1">
          <mxGeometry x="402" y="1570" width="68" height="20" as="geometry" />
        </mxCell>
        <mxCell id="DaFXscNUTRdYXwU_u2qZ-153" value="备注" style="rounded=0;whiteSpace=wrap;html=1;sketch=1;fillColor=#f5f5f5;strokeColor=#666666;disableMultiStrokeFill=0;fontColor=#333333;dashed=1;" parent="WIyWlLk6GJQsqaUBKTNV-1" vertex="1">
          <mxGeometry x="483" y="1570" width="48" height="20" as="geometry" />
        </mxCell>
        <mxCell id="DaFXscNUTRdYXwU_u2qZ-157" style="edgeStyle=orthogonalEdgeStyle;rounded=0;sketch=1;orthogonalLoop=1;jettySize=auto;html=1;entryX=0.5;entryY=1;entryDx=0;entryDy=0;strokeColor=#b85450;dashed=1;fillColor=#f8cecc;" parent="WIyWlLk6GJQsqaUBKTNV-1" source="DaFXscNUTRdYXwU_u2qZ-156" target="DaFXscNUTRdYXwU_u2qZ-46" edge="1">
          <mxGeometry relative="1" as="geometry" />
        </mxCell>
        <mxCell id="DaFXscNUTRdYXwU_u2qZ-156" value="新老类型不同需要数据迁移&lt;br&gt;（待和DX部门及PC沟通出结果）" style="rounded=0;whiteSpace=wrap;html=1;dashed=1;disableMultiStrokeFill=0;fillColor=#f8cecc;strokeColor=#b85450;" parent="WIyWlLk6GJQsqaUBKTNV-1" vertex="1">
          <mxGeometry x="1040" y="1100" width="190" height="47.5" as="geometry" />
        </mxCell>
        <mxCell id="DaFXscNUTRdYXwU_u2qZ-159" style="edgeStyle=orthogonalEdgeStyle;rounded=0;sketch=1;orthogonalLoop=1;jettySize=auto;html=1;entryX=1;entryY=0.5;entryDx=0;entryDy=0;dashed=1;strokeColor=#666666;fillColor=#f5f5f5;" parent="WIyWlLk6GJQsqaUBKTNV-1" source="DaFXscNUTRdYXwU_u2qZ-158" target="DaFXscNUTRdYXwU_u2qZ-63" edge="1">
          <mxGeometry relative="1" as="geometry" />
        </mxCell>
        <mxCell id="DaFXscNUTRdYXwU_u2qZ-158" value="&lt;font color=&quot;#000000&quot;&gt;重置信息&lt;/font&gt;" style="rounded=0;whiteSpace=wrap;html=1;dashed=1;disableMultiStrokeFill=0;fillColor=#f5f5f5;fontColor=#333333;strokeColor=#666666;" parent="WIyWlLk6GJQsqaUBKTNV-1" vertex="1">
          <mxGeometry x="790" y="188" width="70" height="32" as="geometry" />
        </mxCell>
        <mxCell id="DaFXscNUTRdYXwU_u2qZ-160" value="&quot;数字资产&quot;属性维护" style="rounded=0;whiteSpace=wrap;html=1;sketch=1;fillColor=#f8cecc;strokeColor=#b85450;" parent="WIyWlLk6GJQsqaUBKTNV-1" vertex="1">
          <mxGeometry x="465" y="297" width="204" height="30" as="geometry" />
        </mxCell>
        <mxCell id="DaFXscNUTRdYXwU_u2qZ-162" value="" style="edgeStyle=orthogonalEdgeStyle;rounded=0;sketch=1;orthogonalLoop=1;jettySize=auto;html=1;dashed=1;strokeColor=#666666;fillColor=#f5f5f5;" parent="WIyWlLk6GJQsqaUBKTNV-1" source="DaFXscNUTRdYXwU_u2qZ-161" target="DaFXscNUTRdYXwU_u2qZ-100" edge="1">
          <mxGeometry relative="1" as="geometry" />
        </mxCell>
        <mxCell id="DaFXscNUTRdYXwU_u2qZ-161" value="&lt;div class=&quot;okr-block-clipboard&quot;&gt;&lt;/div&gt;&lt;div&gt;数据初始化&lt;/div&gt;&lt;div&gt;&lt;div class=&quot;okr-block-clipboard&quot;&gt;&lt;/div&gt;&lt;div&gt;&lt;div style=&quot;margin-left: 3em&quot;&gt;上线前需要同步AMP所有数字资产，&lt;/div&gt;&lt;div style=&quot;margin-left: 3em&quot;&gt;根据AMP现有数字资产创建初始的后台分类树&lt;/div&gt;&lt;/div&gt;&lt;/div&gt;" style="rounded=0;whiteSpace=wrap;html=1;dashed=1;disableMultiStrokeFill=0;fillColor=#f5f5f5;fontColor=#333333;strokeColor=#666666;" parent="WIyWlLk6GJQsqaUBKTNV-1" vertex="1">
          <mxGeometry x="760" y="671" width="290" height="45" as="geometry" />
        </mxCell>
      </root>
    </mxGraphModel>
  </diagram>
  <diagram id="CYOohyRNy33eC0uhKDjs" name="1.0">
    <mxGraphModel dx="946" dy="513" grid="1" gridSize="10" guides="1" tooltips="1" connect="1" arrows="1" fold="1" page="1" pageScale="1" pageWidth="827" pageHeight="1169" math="0" shadow="0">
      <root>
        <mxCell id="0" />
        <mxCell id="1" parent="0" />
        <mxCell id="O0wKKeMZfJ2QjdegtIMZ-1" value="资产中台列表" style="rounded=0;whiteSpace=wrap;html=1;sketch=1;fillColor=#f8cecc;strokeColor=#b85450;" parent="1" vertex="1">
          <mxGeometry x="486" y="322" width="204" height="30" as="geometry" />
        </mxCell>
        <mxCell id="O0wKKeMZfJ2QjdegtIMZ-23" value="" style="edgeStyle=orthogonalEdgeStyle;rounded=0;sketch=1;orthogonalLoop=1;jettySize=auto;html=1;fillColor=#dae8fc;strokeColor=#6c8ebf;entryX=0;entryY=0.5;entryDx=0;entryDy=0;" parent="1" source="O0wKKeMZfJ2QjdegtIMZ-29" target="O0wKKeMZfJ2QjdegtIMZ-1" edge="1">
          <mxGeometry relative="1" as="geometry">
            <mxPoint x="488" y="315" as="targetPoint" />
          </mxGeometry>
        </mxCell>
        <mxCell id="O0wKKeMZfJ2QjdegtIMZ-25" style="edgeStyle=orthogonalEdgeStyle;rounded=0;sketch=1;orthogonalLoop=1;jettySize=auto;html=1;entryX=0;entryY=0.5;entryDx=0;entryDy=0;strokeColor=#6c8ebf;fillColor=#dae8fc;" parent="1" source="O0wKKeMZfJ2QjdegtIMZ-29" target="O0wKKeMZfJ2QjdegtIMZ-61" edge="1">
          <mxGeometry relative="1" as="geometry" />
        </mxCell>
        <mxCell id="O0wKKeMZfJ2QjdegtIMZ-26" style="edgeStyle=orthogonalEdgeStyle;rounded=0;sketch=1;orthogonalLoop=1;jettySize=auto;html=1;entryX=0;entryY=0.5;entryDx=0;entryDy=0;strokeColor=#6c8ebf;fillColor=#dae8fc;" parent="1" source="O0wKKeMZfJ2QjdegtIMZ-29" target="O0wKKeMZfJ2QjdegtIMZ-62" edge="1">
          <mxGeometry relative="1" as="geometry" />
        </mxCell>
        <mxCell id="O0wKKeMZfJ2QjdegtIMZ-27" style="edgeStyle=orthogonalEdgeStyle;rounded=0;sketch=1;orthogonalLoop=1;jettySize=auto;html=1;entryX=0;entryY=0.5;entryDx=0;entryDy=0;strokeColor=#6c8ebf;fillColor=#dae8fc;" parent="1" source="O0wKKeMZfJ2QjdegtIMZ-29" target="O0wKKeMZfJ2QjdegtIMZ-63" edge="1">
          <mxGeometry relative="1" as="geometry" />
        </mxCell>
        <mxCell id="SvE_egN9QljHkuPOyV_Q-4" style="edgeStyle=orthogonalEdgeStyle;rounded=0;orthogonalLoop=1;jettySize=auto;html=1;entryX=0;entryY=0.5;entryDx=0;entryDy=0;fillColor=#dae8fc;strokeColor=#6c8ebf;sketch=1;" parent="1" source="O0wKKeMZfJ2QjdegtIMZ-29" target="SvE_egN9QljHkuPOyV_Q-1" edge="1">
          <mxGeometry relative="1" as="geometry" />
        </mxCell>
        <mxCell id="O0wKKeMZfJ2QjdegtIMZ-29" value="数字资产仓库" style="rounded=0;whiteSpace=wrap;html=1;sketch=1;fillColor=#dae8fc;strokeColor=#6c8ebf;treeFolding=1;treeMoving=1;" parent="1" vertex="1">
          <mxGeometry x="280" y="456" width="100" height="30" as="geometry" />
        </mxCell>
        <mxCell id="O0wKKeMZfJ2QjdegtIMZ-30" style="edgeStyle=orthogonalEdgeStyle;rounded=0;sketch=1;orthogonalLoop=1;jettySize=auto;html=1;exitX=1;exitY=0.5;exitDx=0;exitDy=0;entryX=0;entryY=0.5;entryDx=0;entryDy=0;fillColor=#dae8fc;strokeColor=#6c8ebf;" parent="1" source="O0wKKeMZfJ2QjdegtIMZ-31" target="O0wKKeMZfJ2QjdegtIMZ-41" edge="1">
          <mxGeometry relative="1" as="geometry" />
        </mxCell>
        <mxCell id="O0wKKeMZfJ2QjdegtIMZ-31" value="登录模块" style="rounded=0;whiteSpace=wrap;html=1;sketch=1;fillColor=#dae8fc;strokeColor=#6c8ebf;treeMoving=1;treeFolding=1;" parent="1" vertex="1">
          <mxGeometry x="280" y="145" width="100" height="30" as="geometry" />
        </mxCell>
        <mxCell id="O0wKKeMZfJ2QjdegtIMZ-32" value="" style="edgeStyle=orthogonalEdgeStyle;rounded=0;sketch=1;orthogonalLoop=1;jettySize=auto;html=1;entryX=0;entryY=0.5;entryDx=0;entryDy=0;fillColor=#ffe6cc;strokeColor=#d79b00;" parent="1" source="O0wKKeMZfJ2QjdegtIMZ-37" target="O0wKKeMZfJ2QjdegtIMZ-29" edge="1">
          <mxGeometry relative="1" as="geometry" />
        </mxCell>
        <mxCell id="O0wKKeMZfJ2QjdegtIMZ-33" value="" style="edgeStyle=orthogonalEdgeStyle;rounded=0;sketch=1;orthogonalLoop=1;jettySize=auto;html=1;entryX=0;entryY=0.5;entryDx=0;entryDy=0;fillColor=#ffe6cc;strokeColor=#d79b00;" parent="1" source="O0wKKeMZfJ2QjdegtIMZ-37" target="O0wKKeMZfJ2QjdegtIMZ-31" edge="1">
          <mxGeometry relative="1" as="geometry" />
        </mxCell>
        <mxCell id="O0wKKeMZfJ2QjdegtIMZ-37" value="数字资产中心1.0" style="rounded=0;whiteSpace=wrap;html=1;sketch=1;fillColor=#ffe6cc;strokeColor=#d79b00;" parent="1" vertex="1">
          <mxGeometry x="30" y="340" width="100" height="30" as="geometry" />
        </mxCell>
        <mxCell id="O0wKKeMZfJ2QjdegtIMZ-38" style="edgeStyle=orthogonalEdgeStyle;rounded=0;sketch=1;orthogonalLoop=1;jettySize=auto;html=1;exitX=0.5;exitY=1;exitDx=0;exitDy=0;" parent="1" edge="1">
          <mxGeometry relative="1" as="geometry">
            <mxPoint x="330" y="399" as="sourcePoint" />
            <mxPoint x="330" y="399" as="targetPoint" />
          </mxGeometry>
        </mxCell>
        <mxCell id="O0wKKeMZfJ2QjdegtIMZ-41" value="Feature：INTS-3072 &lt;br&gt;嵌入EPWork登录模块" style="rounded=0;whiteSpace=wrap;html=1;sketch=1;fillColor=#f8cecc;strokeColor=#b85450;" parent="1" vertex="1">
          <mxGeometry x="488" y="130" width="206" height="60" as="geometry" />
        </mxCell>
        <mxCell id="O0wKKeMZfJ2QjdegtIMZ-44" value="" style="edgeStyle=orthogonalEdgeStyle;rounded=0;sketch=1;orthogonalLoop=1;jettySize=auto;html=1;entryX=0;entryY=0.5;entryDx=0;entryDy=0;exitX=1;exitY=0.5;exitDx=0;exitDy=0;fillColor=#dae8fc;strokeColor=#6c8ebf;" parent="1" source="O0wKKeMZfJ2QjdegtIMZ-29" target="O0wKKeMZfJ2QjdegtIMZ-57" edge="1">
          <mxGeometry relative="1" as="geometry" />
        </mxCell>
        <mxCell id="O0wKKeMZfJ2QjdegtIMZ-46" value="" style="edgeStyle=orthogonalEdgeStyle;rounded=0;sketch=1;orthogonalLoop=1;jettySize=auto;html=1;entryX=0;entryY=0.5;entryDx=0;entryDy=0;fillColor=#e1d5e7;strokeColor=#9673a6;" parent="1" source="O0wKKeMZfJ2QjdegtIMZ-51" target="O0wKKeMZfJ2QjdegtIMZ-52" edge="1">
          <mxGeometry relative="1" as="geometry" />
        </mxCell>
        <mxCell id="O0wKKeMZfJ2QjdegtIMZ-47" value="" style="edgeStyle=orthogonalEdgeStyle;rounded=0;sketch=1;orthogonalLoop=1;jettySize=auto;html=1;entryX=0;entryY=0.5;entryDx=0;entryDy=0;fillColor=#e1d5e7;strokeColor=#9673a6;" parent="1" source="O0wKKeMZfJ2QjdegtIMZ-51" target="O0wKKeMZfJ2QjdegtIMZ-53" edge="1">
          <mxGeometry relative="1" as="geometry" />
        </mxCell>
        <mxCell id="O0wKKeMZfJ2QjdegtIMZ-48" value="" style="edgeStyle=orthogonalEdgeStyle;rounded=0;sketch=1;orthogonalLoop=1;jettySize=auto;html=1;entryX=0;entryY=0.5;entryDx=0;entryDy=0;fillColor=#e1d5e7;strokeColor=#9673a6;" parent="1" source="O0wKKeMZfJ2QjdegtIMZ-51" target="O0wKKeMZfJ2QjdegtIMZ-54" edge="1">
          <mxGeometry relative="1" as="geometry" />
        </mxCell>
        <mxCell id="O0wKKeMZfJ2QjdegtIMZ-49" value="" style="edgeStyle=orthogonalEdgeStyle;rounded=0;sketch=1;orthogonalLoop=1;jettySize=auto;html=1;entryX=0;entryY=0.5;entryDx=0;entryDy=0;fillColor=#e1d5e7;strokeColor=#9673a6;" parent="1" source="O0wKKeMZfJ2QjdegtIMZ-51" target="O0wKKeMZfJ2QjdegtIMZ-55" edge="1">
          <mxGeometry relative="1" as="geometry" />
        </mxCell>
        <mxCell id="O0wKKeMZfJ2QjdegtIMZ-50" style="edgeStyle=orthogonalEdgeStyle;rounded=0;sketch=1;orthogonalLoop=1;jettySize=auto;html=1;entryX=0;entryY=0.5;entryDx=0;entryDy=0;fillColor=#e1d5e7;strokeColor=#9673a6;" parent="1" source="O0wKKeMZfJ2QjdegtIMZ-51" target="O0wKKeMZfJ2QjdegtIMZ-56" edge="1">
          <mxGeometry relative="1" as="geometry" />
        </mxCell>
        <mxCell id="O0wKKeMZfJ2QjdegtIMZ-51" value="类型" style="rounded=0;whiteSpace=wrap;html=1;sketch=1;fillColor=#e1d5e7;strokeColor=#9673a6;" parent="1" vertex="1">
          <mxGeometry x="600" y="747.5" width="90" height="35" as="geometry" />
        </mxCell>
        <mxCell id="O0wKKeMZfJ2QjdegtIMZ-52" value="贴图(Surface)(SF)" style="rounded=0;whiteSpace=wrap;html=1;sketch=1;fillColor=#d5e8d4;strokeColor=#82b366;" parent="1" vertex="1">
          <mxGeometry x="750" y="650" width="110" height="35" as="geometry" />
        </mxCell>
        <mxCell id="O0wKKeMZfJ2QjdegtIMZ-53" value="笔刷(Brushes)(*BS)" style="rounded=0;whiteSpace=wrap;html=1;sketch=1;fillColor=#d5e8d4;strokeColor=#82b366;" parent="1" vertex="1">
          <mxGeometry x="750" y="700" width="110" height="35" as="geometry" />
        </mxCell>
        <mxCell id="O0wKKeMZfJ2QjdegtIMZ-54" value="透贴(Films)(*FM)" style="rounded=0;whiteSpace=wrap;html=1;sketch=1;fillColor=#d5e8d4;strokeColor=#82b366;" parent="1" vertex="1">
          <mxGeometry x="750" y="747.5" width="110" height="35" as="geometry" />
        </mxCell>
        <mxCell id="O0wKKeMZfJ2QjdegtIMZ-55" value="3D模型(Model)(MD)" style="rounded=0;whiteSpace=wrap;html=1;sketch=1;fillColor=#d5e8d4;strokeColor=#82b366;" parent="1" vertex="1">
          <mxGeometry x="750" y="795" width="110" height="35" as="geometry" />
        </mxCell>
        <mxCell id="O0wKKeMZfJ2QjdegtIMZ-56" value="&lt;span style=&quot;font-size: 13px&quot;&gt;(Comp)(*CP)&lt;/span&gt;" style="rounded=0;whiteSpace=wrap;html=1;sketch=1;fillColor=#d5e8d4;strokeColor=#82b366;" parent="1" vertex="1">
          <mxGeometry x="750" y="840" width="110" height="35" as="geometry" />
        </mxCell>
        <mxCell id="O0wKKeMZfJ2QjdegtIMZ-57" value="“资产包详情”页" style="rounded=0;whiteSpace=wrap;html=1;sketch=1;fillColor=#f8cecc;strokeColor=#b85450;" parent="1" vertex="1">
          <mxGeometry x="486" y="384" width="204" height="30" as="geometry" />
        </mxCell>
        <mxCell id="O0wKKeMZfJ2QjdegtIMZ-58" style="edgeStyle=orthogonalEdgeStyle;sketch=1;orthogonalLoop=1;jettySize=auto;html=1;entryX=1;entryY=0.5;entryDx=0;entryDy=0;strokeColor=#666666;rounded=0;fillColor=#f5f5f5;dashed=1;" parent="1" source="O0wKKeMZfJ2QjdegtIMZ-59" target="O0wKKeMZfJ2QjdegtIMZ-1" edge="1">
          <mxGeometry relative="1" as="geometry">
            <mxPoint x="692" y="315" as="targetPoint" />
          </mxGeometry>
        </mxCell>
        <mxCell id="O0wKKeMZfJ2QjdegtIMZ-59" value="&lt;div&gt;Feature：INTS-2745&amp;nbsp;&lt;/div&gt;&lt;div&gt;支持查看资产中台中存储的全量数据&lt;/div&gt;" style="rounded=0;whiteSpace=wrap;html=1;dashed=1;disableMultiStrokeFill=0;fillColor=#f5f5f5;fontColor=#333333;strokeColor=#666666;sketch=1;" parent="1" vertex="1">
          <mxGeometry x="814" y="285" width="240" height="40" as="geometry" />
        </mxCell>
        <mxCell id="O0wKKeMZfJ2QjdegtIMZ-61" value="&quot;数字资产&quot;储存文件替换" style="rounded=0;whiteSpace=wrap;html=1;sketch=1;fillColor=#f8cecc;strokeColor=#b85450;" parent="1" vertex="1">
          <mxGeometry x="486" y="447" width="204" height="30" as="geometry" />
        </mxCell>
        <mxCell id="O0wKKeMZfJ2QjdegtIMZ-62" value="图片预览区图片上传" style="rounded=0;whiteSpace=wrap;html=1;sketch=1;fillColor=#f8cecc;strokeColor=#b85450;" parent="1" vertex="1">
          <mxGeometry x="486" y="509" width="204" height="30" as="geometry" />
        </mxCell>
        <mxCell id="O0wKKeMZfJ2QjdegtIMZ-63" value="图片预览区图片删除" style="rounded=0;whiteSpace=wrap;html=1;sketch=1;fillColor=#f8cecc;strokeColor=#b85450;" parent="1" vertex="1">
          <mxGeometry x="486" y="572" width="204" height="30" as="geometry" />
        </mxCell>
        <mxCell id="O0wKKeMZfJ2QjdegtIMZ-75" style="edgeStyle=orthogonalEdgeStyle;rounded=0;sketch=1;orthogonalLoop=1;jettySize=auto;html=1;entryX=1;entryY=0.5;entryDx=0;entryDy=0;strokeColor=#666666;dashed=1;fillColor=#f5f5f5;" parent="1" source="O0wKKeMZfJ2QjdegtIMZ-76" target="O0wKKeMZfJ2QjdegtIMZ-61" edge="1">
          <mxGeometry relative="1" as="geometry" />
        </mxCell>
        <mxCell id="O0wKKeMZfJ2QjdegtIMZ-76" value="Feature：INTS-2747 &lt;br&gt;支持对数字资产存储文件的更新" style="rounded=0;whiteSpace=wrap;html=1;dashed=1;disableMultiStrokeFill=0;fillColor=#f5f5f5;fontColor=#333333;strokeColor=#666666;sketch=1;" parent="1" vertex="1">
          <mxGeometry x="814" y="500.5" width="173" height="47" as="geometry" />
        </mxCell>
        <mxCell id="O0wKKeMZfJ2QjdegtIMZ-97" style="edgeStyle=orthogonalEdgeStyle;rounded=0;sketch=1;orthogonalLoop=1;jettySize=auto;html=1;entryX=1;entryY=0.5;entryDx=0;entryDy=0;dashed=1;strokeColor=#666666;fillColor=#f5f5f5;" parent="1" source="O0wKKeMZfJ2QjdegtIMZ-98" target="O0wKKeMZfJ2QjdegtIMZ-1" edge="1">
          <mxGeometry relative="1" as="geometry" />
        </mxCell>
        <mxCell id="O0wKKeMZfJ2QjdegtIMZ-98" value="&lt;span style=&quot;color: rgb(0 , 0 , 0)&quot;&gt;支持类型/分类/尺寸搜索&lt;br&gt;全局搜索[内部ID/资产名称]&lt;/span&gt;" style="rounded=0;whiteSpace=wrap;html=1;dashed=1;disableMultiStrokeFill=0;fillColor=#f5f5f5;fontColor=#333333;strokeColor=#666666;sketch=1;" parent="1" vertex="1">
          <mxGeometry x="814" y="330" width="220" height="40" as="geometry" />
        </mxCell>
        <mxCell id="O0wKKeMZfJ2QjdegtIMZ-100" value="Epic" style="rounded=0;whiteSpace=wrap;html=1;sketch=1;fillColor=#dae8fc;strokeColor=#6c8ebf;disableMultiStrokeFill=0;" parent="1" vertex="1">
          <mxGeometry x="600" y="950" width="50" height="20" as="geometry" />
        </mxCell>
        <mxCell id="O0wKKeMZfJ2QjdegtIMZ-101" value="api/service" style="rounded=0;whiteSpace=wrap;html=1;sketch=1;fillColor=#f8cecc;strokeColor=#b85450;disableMultiStrokeFill=0;" parent="1" vertex="1">
          <mxGeometry x="662" y="950" width="68" height="20" as="geometry" />
        </mxCell>
        <mxCell id="O0wKKeMZfJ2QjdegtIMZ-102" value="备注" style="rounded=0;whiteSpace=wrap;html=1;sketch=1;fillColor=#f5f5f5;strokeColor=#666666;disableMultiStrokeFill=0;fontColor=#333333;dashed=1;" parent="1" vertex="1">
          <mxGeometry x="743" y="950" width="48" height="20" as="geometry" />
        </mxCell>
        <mxCell id="O0wKKeMZfJ2QjdegtIMZ-103" style="edgeStyle=orthogonalEdgeStyle;rounded=0;sketch=1;orthogonalLoop=1;jettySize=auto;html=1;entryX=0.5;entryY=1;entryDx=0;entryDy=0;strokeColor=#b85450;dashed=1;fillColor=#f8cecc;" parent="1" source="O0wKKeMZfJ2QjdegtIMZ-104" target="O0wKKeMZfJ2QjdegtIMZ-51" edge="1">
          <mxGeometry relative="1" as="geometry" />
        </mxCell>
        <mxCell id="O0wKKeMZfJ2QjdegtIMZ-104" value="新老类型不同需要数据迁移&lt;br&gt;（待和DX部门及PC沟通出结果）" style="rounded=0;whiteSpace=wrap;html=1;dashed=1;disableMultiStrokeFill=0;fillColor=#f8cecc;strokeColor=#b85450;" parent="1" vertex="1">
          <mxGeometry x="910" y="862.5" width="190" height="47.5" as="geometry" />
        </mxCell>
        <mxCell id="O0wKKeMZfJ2QjdegtIMZ-105" style="edgeStyle=orthogonalEdgeStyle;rounded=0;sketch=1;orthogonalLoop=1;jettySize=auto;html=1;entryX=1;entryY=0.5;entryDx=0;entryDy=0;dashed=1;strokeColor=#666666;fillColor=#f5f5f5;" parent="1" source="O0wKKeMZfJ2QjdegtIMZ-106" target="O0wKKeMZfJ2QjdegtIMZ-57" edge="1">
          <mxGeometry relative="1" as="geometry" />
        </mxCell>
        <mxCell id="O0wKKeMZfJ2QjdegtIMZ-106" value="&lt;font color=&quot;#000000&quot;&gt;Feature：INTS-3454 支持查看资产包的基础信息&lt;/font&gt;" style="rounded=0;whiteSpace=wrap;html=1;dashed=1;disableMultiStrokeFill=0;fillColor=#f5f5f5;fontColor=#333333;strokeColor=#666666;sketch=1;" parent="1" vertex="1">
          <mxGeometry x="814" y="377" width="296" height="23" as="geometry" />
        </mxCell>
        <mxCell id="SvE_egN9QljHkuPOyV_Q-1" value="数字资产中心整体布局" style="rounded=0;whiteSpace=wrap;html=1;sketch=1;fillColor=#f8cecc;strokeColor=#b85450;" parent="1" vertex="1">
          <mxGeometry x="486" y="259" width="205" height="30" as="geometry" />
        </mxCell>
        <mxCell id="SvE_egN9QljHkuPOyV_Q-10" style="edgeStyle=orthogonalEdgeStyle;rounded=0;sketch=1;orthogonalLoop=1;jettySize=auto;html=1;strokeColor=#666666;dashed=1;fillColor=#f5f5f5;entryX=1;entryY=0.5;entryDx=0;entryDy=0;" parent="1" source="SvE_egN9QljHkuPOyV_Q-11" target="SvE_egN9QljHkuPOyV_Q-1" edge="1">
          <mxGeometry relative="1" as="geometry">
            <mxPoint x="674" y="257" as="targetPoint" />
          </mxGeometry>
        </mxCell>
        <mxCell id="SvE_egN9QljHkuPOyV_Q-11" value="Feature：INTS-3465" style="rounded=0;whiteSpace=wrap;html=1;dashed=1;disableMultiStrokeFill=0;fillColor=#f5f5f5;fontColor=#333333;strokeColor=#666666;sketch=1;" parent="1" vertex="1">
          <mxGeometry x="814" y="240" width="180" height="25" as="geometry" />
        </mxCell>
        <mxCell id="LcgM2El-GMrela7z6uKI-5" style="edgeStyle=orthogonalEdgeStyle;rounded=0;sketch=1;orthogonalLoop=1;jettySize=auto;html=1;entryX=1;entryY=0.5;entryDx=0;entryDy=0;strokeColor=#666666;dashed=1;fillColor=#f5f5f5;" parent="1" source="LcgM2El-GMrela7z6uKI-6" target="O0wKKeMZfJ2QjdegtIMZ-41" edge="1">
          <mxGeometry relative="1" as="geometry">
            <mxPoint x="910" y="40" as="targetPoint" />
          </mxGeometry>
        </mxCell>
        <mxCell id="LcgM2El-GMrela7z6uKI-6" value="&lt;span style=&quot;color: rgb(0 , 0 , 0)&quot;&gt;① Feature 权限自己控制 下期做&lt;/span&gt;" style="rounded=0;whiteSpace=wrap;html=1;dashed=1;disableMultiStrokeFill=0;fillColor=#f5f5f5;fontColor=#333333;strokeColor=#666666;sketch=1;" parent="1" vertex="1">
          <mxGeometry x="814" y="115" width="188" height="30" as="geometry" />
        </mxCell>
        <mxCell id="LcgM2El-GMrela7z6uKI-7" style="edgeStyle=orthogonalEdgeStyle;rounded=0;sketch=1;orthogonalLoop=1;jettySize=auto;html=1;entryX=1;entryY=0.5;entryDx=0;entryDy=0;strokeColor=#666666;dashed=1;fillColor=#f5f5f5;" parent="1" source="LcgM2El-GMrela7z6uKI-8" target="O0wKKeMZfJ2QjdegtIMZ-41" edge="1">
          <mxGeometry relative="1" as="geometry">
            <mxPoint x="1054" y="145" as="targetPoint" />
          </mxGeometry>
        </mxCell>
        <mxCell id="LcgM2El-GMrela7z6uKI-8" value="&lt;span style=&quot;color: rgb(0 , 0 , 0)&quot;&gt;② 用户信息需获取人员架构、用户头像、LDAP信息&lt;/span&gt;" style="rounded=0;whiteSpace=wrap;html=1;dashed=1;disableMultiStrokeFill=0;fillColor=#f5f5f5;fontColor=#333333;strokeColor=#666666;sketch=1;" parent="1" vertex="1">
          <mxGeometry x="814" y="170" width="206" height="40" as="geometry" />
        </mxCell>
        <mxCell id="LcgM2El-GMrela7z6uKI-12" style="edgeStyle=orthogonalEdgeStyle;rounded=0;sketch=1;orthogonalLoop=1;jettySize=auto;html=1;strokeColor=#666666;dashed=1;fillColor=#f5f5f5;entryX=1;entryY=0.5;entryDx=0;entryDy=0;" parent="1" source="LcgM2El-GMrela7z6uKI-13" target="O0wKKeMZfJ2QjdegtIMZ-57" edge="1">
          <mxGeometry relative="1" as="geometry">
            <mxPoint x="710" y="400" as="targetPoint" />
          </mxGeometry>
        </mxCell>
        <mxCell id="LcgM2El-GMrela7z6uKI-13" value="Feature：INTS-3493 支持查看资产包的资产文件和预览图信息" style="rounded=0;whiteSpace=wrap;html=1;dashed=1;disableMultiStrokeFill=0;fillColor=#f5f5f5;fontColor=#333333;strokeColor=#666666;sketch=1;" parent="1" vertex="1">
          <mxGeometry x="814" y="406" width="176" height="50" as="geometry" />
        </mxCell>
      </root>
    </mxGraphModel>
  </diagram>
  <diagram id="mRNdoKyYzW5aZWkY2GjB" name="E-R图">
    <mxGraphModel dx="946" dy="513" grid="1" gridSize="10" guides="1" tooltips="1" connect="1" arrows="1" fold="1" page="1" pageScale="1" pageWidth="827" pageHeight="1169" math="0" shadow="0">
      <root>
        <mxCell id="0" />
        <mxCell id="1" parent="0" />
        <mxCell id="F_34b5jo6EodDK-DppNW-1" value="" style="edgeStyle=entityRelationEdgeStyle;endArrow=ERzeroToMany;startArrow=ERone;endFill=1;startFill=0;" parent="1" source="F_34b5jo6EodDK-DppNW-24" target="F_34b5jo6EodDK-DppNW-7" edge="1">
          <mxGeometry width="100" height="100" relative="1" as="geometry">
            <mxPoint x="340" y="720" as="sourcePoint" />
            <mxPoint x="440" y="620" as="targetPoint" />
          </mxGeometry>
        </mxCell>
        <mxCell id="F_34b5jo6EodDK-DppNW-221" value="1:N" style="edgeLabel;html=1;align=center;verticalAlign=middle;resizable=0;points=[];" parent="F_34b5jo6EodDK-DppNW-1" vertex="1" connectable="0">
          <mxGeometry x="0.0678" y="3" relative="1" as="geometry">
            <mxPoint as="offset" />
          </mxGeometry>
        </mxCell>
        <mxCell id="F_34b5jo6EodDK-DppNW-3" value="asset_edit_log 资产重置记录表" style="shape=table;startSize=30;container=1;collapsible=1;childLayout=tableLayout;fixedRows=1;rowLines=0;fontStyle=1;align=center;resizeLast=1;" parent="1" vertex="1">
          <mxGeometry x="720" y="130" width="370" height="250" as="geometry" />
        </mxCell>
        <mxCell id="F_34b5jo6EodDK-DppNW-4" value="" style="shape=partialRectangle;collapsible=0;dropTarget=0;pointerEvents=0;fillColor=none;points=[[0,0.5],[1,0.5]];portConstraint=eastwest;top=0;left=0;right=0;bottom=1;" parent="F_34b5jo6EodDK-DppNW-3" vertex="1">
          <mxGeometry y="30" width="370" height="30" as="geometry" />
        </mxCell>
        <mxCell id="F_34b5jo6EodDK-DppNW-5" value="PK" style="shape=partialRectangle;overflow=hidden;connectable=0;fillColor=none;top=0;left=0;bottom=0;right=0;fontStyle=1;" parent="F_34b5jo6EodDK-DppNW-4" vertex="1">
          <mxGeometry width="30" height="30" as="geometry">
            <mxRectangle width="30" height="30" as="alternateBounds" />
          </mxGeometry>
        </mxCell>
        <mxCell id="F_34b5jo6EodDK-DppNW-6" value="`id` bigint(20) COMMENT &#39;自增ID&#39; " style="shape=partialRectangle;overflow=hidden;connectable=0;fillColor=none;top=0;left=0;bottom=0;right=0;align=left;spacingLeft=6;fontStyle=5;" parent="F_34b5jo6EodDK-DppNW-4" vertex="1">
          <mxGeometry x="30" width="340" height="30" as="geometry">
            <mxRectangle width="340" height="30" as="alternateBounds" />
          </mxGeometry>
        </mxCell>
        <mxCell id="F_34b5jo6EodDK-DppNW-7" value="" style="shape=partialRectangle;collapsible=0;dropTarget=0;pointerEvents=0;fillColor=none;points=[[0,0.5],[1,0.5]];portConstraint=eastwest;top=0;left=0;right=0;bottom=0;" parent="F_34b5jo6EodDK-DppNW-3" vertex="1">
          <mxGeometry y="60" width="370" height="30" as="geometry" />
        </mxCell>
        <mxCell id="F_34b5jo6EodDK-DppNW-8" value="FK1" style="shape=partialRectangle;overflow=hidden;connectable=0;fillColor=none;top=0;left=0;bottom=0;right=0;" parent="F_34b5jo6EodDK-DppNW-7" vertex="1">
          <mxGeometry width="30" height="30" as="geometry">
            <mxRectangle width="30" height="30" as="alternateBounds" />
          </mxGeometry>
        </mxCell>
        <mxCell id="F_34b5jo6EodDK-DppNW-9" value="`asset_id` bigint(20) COMMENT &#39;资产ID&#39;" style="shape=partialRectangle;overflow=hidden;connectable=0;fillColor=none;top=0;left=0;bottom=0;right=0;align=left;spacingLeft=6;" parent="F_34b5jo6EodDK-DppNW-7" vertex="1">
          <mxGeometry x="30" width="340" height="30" as="geometry">
            <mxRectangle width="340" height="30" as="alternateBounds" />
          </mxGeometry>
        </mxCell>
        <mxCell id="F_34b5jo6EodDK-DppNW-228" value="" style="shape=partialRectangle;collapsible=0;dropTarget=0;pointerEvents=0;fillColor=none;points=[[0,0.5],[1,0.5]];portConstraint=eastwest;top=0;left=0;right=0;bottom=0;" parent="F_34b5jo6EodDK-DppNW-3" vertex="1">
          <mxGeometry y="90" width="370" height="30" as="geometry" />
        </mxCell>
        <mxCell id="F_34b5jo6EodDK-DppNW-229" value="" style="shape=partialRectangle;overflow=hidden;connectable=0;fillColor=none;top=0;left=0;bottom=0;right=0;" parent="F_34b5jo6EodDK-DppNW-228" vertex="1">
          <mxGeometry width="30" height="30" as="geometry">
            <mxRectangle width="30" height="30" as="alternateBounds" />
          </mxGeometry>
        </mxCell>
        <mxCell id="F_34b5jo6EodDK-DppNW-230" value="`data` text COMMENT &#39;变更记录json&#39;" style="shape=partialRectangle;overflow=hidden;connectable=0;fillColor=none;top=0;left=0;bottom=0;right=0;align=left;spacingLeft=6;" parent="F_34b5jo6EodDK-DppNW-228" vertex="1">
          <mxGeometry x="30" width="340" height="30" as="geometry">
            <mxRectangle width="340" height="30" as="alternateBounds" />
          </mxGeometry>
        </mxCell>
        <mxCell id="F_34b5jo6EodDK-DppNW-10" value="" style="shape=partialRectangle;collapsible=0;dropTarget=0;pointerEvents=0;fillColor=none;points=[[0,0.5],[1,0.5]];portConstraint=eastwest;top=0;left=0;right=0;bottom=0;" parent="F_34b5jo6EodDK-DppNW-3" vertex="1">
          <mxGeometry y="120" width="370" height="30" as="geometry" />
        </mxCell>
        <mxCell id="F_34b5jo6EodDK-DppNW-11" value="" style="shape=partialRectangle;overflow=hidden;connectable=0;fillColor=none;top=0;left=0;bottom=0;right=0;" parent="F_34b5jo6EodDK-DppNW-10" vertex="1">
          <mxGeometry width="30" height="30" as="geometry">
            <mxRectangle width="30" height="30" as="alternateBounds" />
          </mxGeometry>
        </mxCell>
        <mxCell id="F_34b5jo6EodDK-DppNW-12" value="`editor_id` bigint(20) COMMENT &#39;更新人id&#39;" style="shape=partialRectangle;overflow=hidden;connectable=0;fillColor=none;top=0;left=0;bottom=0;right=0;align=left;spacingLeft=6;" parent="F_34b5jo6EodDK-DppNW-10" vertex="1">
          <mxGeometry x="30" width="340" height="30" as="geometry">
            <mxRectangle width="340" height="30" as="alternateBounds" />
          </mxGeometry>
        </mxCell>
        <mxCell id="5UsDiWK79urw-ou_i29c-19" value="" style="shape=partialRectangle;collapsible=0;dropTarget=0;pointerEvents=0;fillColor=none;points=[[0,0.5],[1,0.5]];portConstraint=eastwest;top=0;left=0;right=0;bottom=0;" vertex="1" parent="F_34b5jo6EodDK-DppNW-3">
          <mxGeometry y="150" width="370" height="30" as="geometry" />
        </mxCell>
        <mxCell id="5UsDiWK79urw-ou_i29c-20" value="" style="shape=partialRectangle;overflow=hidden;connectable=0;fillColor=none;top=0;left=0;bottom=0;right=0;" vertex="1" parent="5UsDiWK79urw-ou_i29c-19">
          <mxGeometry width="30" height="30" as="geometry">
            <mxRectangle width="30" height="30" as="alternateBounds" />
          </mxGeometry>
        </mxCell>
        <mxCell id="5UsDiWK79urw-ou_i29c-21" value="`editor_realname` varchar(30) COMMENT &#39;最后更新人姓名&#39;" style="shape=partialRectangle;overflow=hidden;connectable=0;fillColor=none;top=0;left=0;bottom=0;right=0;align=left;spacingLeft=6;" vertex="1" parent="5UsDiWK79urw-ou_i29c-19">
          <mxGeometry x="30" width="340" height="30" as="geometry">
            <mxRectangle width="340" height="30" as="alternateBounds" />
          </mxGeometry>
        </mxCell>
        <mxCell id="F_34b5jo6EodDK-DppNW-164" value="" style="shape=partialRectangle;collapsible=0;dropTarget=0;pointerEvents=0;fillColor=none;points=[[0,0.5],[1,0.5]];portConstraint=eastwest;top=0;left=0;right=0;bottom=0;" parent="F_34b5jo6EodDK-DppNW-3" vertex="1">
          <mxGeometry y="180" width="370" height="30" as="geometry" />
        </mxCell>
        <mxCell id="F_34b5jo6EodDK-DppNW-165" value="" style="shape=partialRectangle;overflow=hidden;connectable=0;fillColor=none;top=0;left=0;bottom=0;right=0;" parent="F_34b5jo6EodDK-DppNW-164" vertex="1">
          <mxGeometry width="30" height="30" as="geometry">
            <mxRectangle width="30" height="30" as="alternateBounds" />
          </mxGeometry>
        </mxCell>
        <mxCell id="F_34b5jo6EodDK-DppNW-166" value="`created_at` datetime COMMENT &#39;创建时间&#39;" style="shape=partialRectangle;overflow=hidden;connectable=0;fillColor=none;top=0;left=0;bottom=0;right=0;align=left;spacingLeft=6;" parent="F_34b5jo6EodDK-DppNW-164" vertex="1">
          <mxGeometry x="30" width="340" height="30" as="geometry">
            <mxRectangle width="340" height="30" as="alternateBounds" />
          </mxGeometry>
        </mxCell>
        <mxCell id="F_34b5jo6EodDK-DppNW-167" value="" style="shape=partialRectangle;collapsible=0;dropTarget=0;pointerEvents=0;fillColor=none;points=[[0,0.5],[1,0.5]];portConstraint=eastwest;top=0;left=0;right=0;bottom=0;" parent="F_34b5jo6EodDK-DppNW-3" vertex="1">
          <mxGeometry y="210" width="370" height="30" as="geometry" />
        </mxCell>
        <mxCell id="F_34b5jo6EodDK-DppNW-168" value="" style="shape=partialRectangle;overflow=hidden;connectable=0;fillColor=none;top=0;left=0;bottom=0;right=0;" parent="F_34b5jo6EodDK-DppNW-167" vertex="1">
          <mxGeometry width="30" height="30" as="geometry">
            <mxRectangle width="30" height="30" as="alternateBounds" />
          </mxGeometry>
        </mxCell>
        <mxCell id="F_34b5jo6EodDK-DppNW-169" value="`updated_at` datetime COMMENT &#39;编辑时间&#39;" style="shape=partialRectangle;overflow=hidden;connectable=0;fillColor=none;top=0;left=0;bottom=0;right=0;align=left;spacingLeft=6;" parent="F_34b5jo6EodDK-DppNW-167" vertex="1">
          <mxGeometry x="30" width="340" height="30" as="geometry">
            <mxRectangle width="340" height="30" as="alternateBounds" />
          </mxGeometry>
        </mxCell>
        <mxCell id="F_34b5jo6EodDK-DppNW-23" value="asset 资产表" style="shape=table;startSize=30;container=1;collapsible=1;childLayout=tableLayout;fixedRows=1;rowLines=0;fontStyle=1;align=center;resizeLast=1;" parent="1" vertex="1">
          <mxGeometry x="30" y="125" width="420" height="675" as="geometry" />
        </mxCell>
        <mxCell id="F_34b5jo6EodDK-DppNW-24" value="" style="shape=partialRectangle;collapsible=0;dropTarget=0;pointerEvents=0;fillColor=none;points=[[0,0.5],[1,0.5]];portConstraint=eastwest;top=0;left=0;right=0;bottom=1;" parent="F_34b5jo6EodDK-DppNW-23" vertex="1">
          <mxGeometry y="30" width="420" height="30" as="geometry" />
        </mxCell>
        <mxCell id="F_34b5jo6EodDK-DppNW-25" value="PK" style="shape=partialRectangle;overflow=hidden;connectable=0;fillColor=none;top=0;left=0;bottom=0;right=0;fontStyle=1;" parent="F_34b5jo6EodDK-DppNW-24" vertex="1">
          <mxGeometry width="30" height="30" as="geometry">
            <mxRectangle width="30" height="30" as="alternateBounds" />
          </mxGeometry>
        </mxCell>
        <mxCell id="F_34b5jo6EodDK-DppNW-26" value="`id` bigint(20) COMMENT &#39;自增ID&#39; " style="shape=partialRectangle;overflow=hidden;connectable=0;fillColor=none;top=0;left=0;bottom=0;right=0;align=left;spacingLeft=6;fontStyle=5;" parent="F_34b5jo6EodDK-DppNW-24" vertex="1">
          <mxGeometry x="30" width="390" height="30" as="geometry">
            <mxRectangle width="390" height="30" as="alternateBounds" />
          </mxGeometry>
        </mxCell>
        <mxCell id="F_34b5jo6EodDK-DppNW-53" value="" style="shape=partialRectangle;collapsible=0;dropTarget=0;pointerEvents=0;fillColor=none;points=[[0,0.5],[1,0.5]];portConstraint=eastwest;top=0;left=0;right=0;bottom=0;" parent="F_34b5jo6EodDK-DppNW-23" vertex="1">
          <mxGeometry y="60" width="420" height="30" as="geometry" />
        </mxCell>
        <mxCell id="F_34b5jo6EodDK-DppNW-54" value="" style="shape=partialRectangle;overflow=hidden;connectable=0;fillColor=none;top=0;left=0;bottom=0;right=0;" parent="F_34b5jo6EodDK-DppNW-53" vertex="1">
          <mxGeometry width="30" height="30" as="geometry">
            <mxRectangle width="30" height="30" as="alternateBounds" />
          </mxGeometry>
        </mxCell>
        <mxCell id="F_34b5jo6EodDK-DppNW-55" value="`internal_id` varchar(255) COMMENT &#39;资产内部ID&#39;" style="shape=partialRectangle;overflow=hidden;connectable=0;fillColor=none;top=0;left=0;bottom=0;right=0;align=left;spacingLeft=6;" parent="F_34b5jo6EodDK-DppNW-53" vertex="1">
          <mxGeometry x="30" width="390" height="30" as="geometry">
            <mxRectangle width="390" height="30" as="alternateBounds" />
          </mxGeometry>
        </mxCell>
        <mxCell id="F_34b5jo6EodDK-DppNW-149" value="" style="shape=partialRectangle;collapsible=0;dropTarget=0;pointerEvents=0;fillColor=none;points=[[0,0.5],[1,0.5]];portConstraint=eastwest;top=0;left=0;right=0;bottom=0;" parent="F_34b5jo6EodDK-DppNW-23" vertex="1">
          <mxGeometry y="90" width="420" height="30" as="geometry" />
        </mxCell>
        <mxCell id="F_34b5jo6EodDK-DppNW-150" value="" style="shape=partialRectangle;overflow=hidden;connectable=0;fillColor=none;top=0;left=0;bottom=0;right=0;" parent="F_34b5jo6EodDK-DppNW-149" vertex="1">
          <mxGeometry width="30" height="30" as="geometry">
            <mxRectangle width="30" height="30" as="alternateBounds" />
          </mxGeometry>
        </mxCell>
        <mxCell id="F_34b5jo6EodDK-DppNW-151" value="`source` tinyint(1) COMMENT &#39;资产来源 0:未知; 1:AMP;&#39;" style="shape=partialRectangle;overflow=hidden;connectable=0;fillColor=none;top=0;left=0;bottom=0;right=0;align=left;spacingLeft=6;" parent="F_34b5jo6EodDK-DppNW-149" vertex="1">
          <mxGeometry x="30" width="390" height="30" as="geometry">
            <mxRectangle width="390" height="30" as="alternateBounds" />
          </mxGeometry>
        </mxCell>
        <mxCell id="F_34b5jo6EodDK-DppNW-161" value="" style="shape=partialRectangle;collapsible=0;dropTarget=0;pointerEvents=0;fillColor=none;points=[[0,0.5],[1,0.5]];portConstraint=eastwest;top=0;left=0;right=0;bottom=0;" parent="F_34b5jo6EodDK-DppNW-23" vertex="1">
          <mxGeometry y="120" width="420" height="30" as="geometry" />
        </mxCell>
        <mxCell id="F_34b5jo6EodDK-DppNW-162" value="" style="shape=partialRectangle;overflow=hidden;connectable=0;fillColor=none;top=0;left=0;bottom=0;right=0;" parent="F_34b5jo6EodDK-DppNW-161" vertex="1">
          <mxGeometry width="30" height="30" as="geometry">
            <mxRectangle width="30" height="30" as="alternateBounds" />
          </mxGeometry>
        </mxCell>
        <mxCell id="F_34b5jo6EodDK-DppNW-163" value="`external_id` bigint(20) COMMENT &#39;外部ID&#39;" style="shape=partialRectangle;overflow=hidden;connectable=0;fillColor=none;top=0;left=0;bottom=0;right=0;align=left;spacingLeft=6;" parent="F_34b5jo6EodDK-DppNW-161" vertex="1">
          <mxGeometry x="30" width="390" height="30" as="geometry">
            <mxRectangle width="390" height="30" as="alternateBounds" />
          </mxGeometry>
        </mxCell>
        <mxCell id="F_34b5jo6EodDK-DppNW-27" value="" style="shape=partialRectangle;collapsible=0;dropTarget=0;pointerEvents=0;fillColor=none;points=[[0,0.5],[1,0.5]];portConstraint=eastwest;top=0;left=0;right=0;bottom=0;" parent="F_34b5jo6EodDK-DppNW-23" vertex="1">
          <mxGeometry y="150" width="420" height="30" as="geometry" />
        </mxCell>
        <mxCell id="F_34b5jo6EodDK-DppNW-28" value="" style="shape=partialRectangle;overflow=hidden;connectable=0;fillColor=none;top=0;left=0;bottom=0;right=0;" parent="F_34b5jo6EodDK-DppNW-27" vertex="1">
          <mxGeometry width="30" height="30" as="geometry">
            <mxRectangle width="30" height="30" as="alternateBounds" />
          </mxGeometry>
        </mxCell>
        <mxCell id="F_34b5jo6EodDK-DppNW-29" value="`name` varchar(255) COMMENT &#39;资产名称&#39;" style="shape=partialRectangle;overflow=hidden;connectable=0;fillColor=none;top=0;left=0;bottom=0;right=0;align=left;spacingLeft=6;" parent="F_34b5jo6EodDK-DppNW-27" vertex="1">
          <mxGeometry x="30" width="390" height="30" as="geometry">
            <mxRectangle width="390" height="30" as="alternateBounds" />
          </mxGeometry>
        </mxCell>
        <mxCell id="F_34b5jo6EodDK-DppNW-42" value="" style="shape=partialRectangle;collapsible=0;dropTarget=0;pointerEvents=0;fillColor=none;points=[[0,0.5],[1,0.5]];portConstraint=eastwest;top=0;left=0;right=0;bottom=0;" parent="F_34b5jo6EodDK-DppNW-23" vertex="1">
          <mxGeometry y="180" width="420" height="30" as="geometry" />
        </mxCell>
        <mxCell id="F_34b5jo6EodDK-DppNW-43" value="" style="shape=partialRectangle;overflow=hidden;connectable=0;fillColor=none;top=0;left=0;bottom=0;right=0;" parent="F_34b5jo6EodDK-DppNW-42" vertex="1">
          <mxGeometry width="30" height="30" as="geometry">
            <mxRectangle width="30" height="30" as="alternateBounds" />
          </mxGeometry>
        </mxCell>
        <mxCell id="F_34b5jo6EodDK-DppNW-44" value="`name_en` varchar(255) COMMENT &#39;资产名称-英文名&#39;" style="shape=partialRectangle;overflow=hidden;connectable=0;fillColor=none;top=0;left=0;bottom=0;right=0;align=left;spacingLeft=6;" parent="F_34b5jo6EodDK-DppNW-42" vertex="1">
          <mxGeometry x="30" width="390" height="30" as="geometry">
            <mxRectangle width="390" height="30" as="alternateBounds" />
          </mxGeometry>
        </mxCell>
        <mxCell id="F_34b5jo6EodDK-DppNW-45" value="" style="shape=partialRectangle;collapsible=0;dropTarget=0;pointerEvents=0;fillColor=none;points=[[0,0.5],[1,0.5]];portConstraint=eastwest;top=0;left=0;right=0;bottom=0;" parent="F_34b5jo6EodDK-DppNW-23" vertex="1">
          <mxGeometry y="210" width="420" height="30" as="geometry" />
        </mxCell>
        <mxCell id="F_34b5jo6EodDK-DppNW-46" value="FK1" style="shape=partialRectangle;overflow=hidden;connectable=0;fillColor=none;top=0;left=0;bottom=0;right=0;" parent="F_34b5jo6EodDK-DppNW-45" vertex="1">
          <mxGeometry width="30" height="30" as="geometry">
            <mxRectangle width="30" height="30" as="alternateBounds" />
          </mxGeometry>
        </mxCell>
        <mxCell id="F_34b5jo6EodDK-DppNW-47" value="`asset_type_id` tinyint(1) COMMENT &#39;资产类型id&#39;" style="shape=partialRectangle;overflow=hidden;connectable=0;fillColor=none;top=0;left=0;bottom=0;right=0;align=left;spacingLeft=6;" parent="F_34b5jo6EodDK-DppNW-45" vertex="1">
          <mxGeometry x="30" width="390" height="30" as="geometry">
            <mxRectangle width="390" height="30" as="alternateBounds" />
          </mxGeometry>
        </mxCell>
        <mxCell id="F_34b5jo6EodDK-DppNW-56" value="" style="shape=partialRectangle;collapsible=0;dropTarget=0;pointerEvents=0;fillColor=none;points=[[0,0.5],[1,0.5]];portConstraint=eastwest;top=0;left=0;right=0;bottom=0;" parent="F_34b5jo6EodDK-DppNW-23" vertex="1">
          <mxGeometry y="240" width="420" height="30" as="geometry" />
        </mxCell>
        <mxCell id="F_34b5jo6EodDK-DppNW-57" value="" style="shape=partialRectangle;overflow=hidden;connectable=0;fillColor=none;top=0;left=0;bottom=0;right=0;" parent="F_34b5jo6EodDK-DppNW-56" vertex="1">
          <mxGeometry width="30" height="30" as="geometry">
            <mxRectangle width="30" height="30" as="alternateBounds" />
          </mxGeometry>
        </mxCell>
        <mxCell id="F_34b5jo6EodDK-DppNW-58" value="`region` varchar(30) COMMENT &#39;采集地区 CN:中国 是否有字典&#39;" style="shape=partialRectangle;overflow=hidden;connectable=0;fillColor=none;top=0;left=0;bottom=0;right=0;align=left;spacingLeft=6;" parent="F_34b5jo6EodDK-DppNW-56" vertex="1">
          <mxGeometry x="30" width="390" height="30" as="geometry">
            <mxRectangle width="390" height="30" as="alternateBounds" />
          </mxGeometry>
        </mxCell>
        <mxCell id="F_34b5jo6EodDK-DppNW-62" value="" style="shape=partialRectangle;collapsible=0;dropTarget=0;pointerEvents=0;fillColor=none;points=[[0,0.5],[1,0.5]];portConstraint=eastwest;top=0;left=0;right=0;bottom=0;" parent="F_34b5jo6EodDK-DppNW-23" vertex="1">
          <mxGeometry y="270" width="420" height="30" as="geometry" />
        </mxCell>
        <mxCell id="F_34b5jo6EodDK-DppNW-63" value="" style="shape=partialRectangle;overflow=hidden;connectable=0;fillColor=none;top=0;left=0;bottom=0;right=0;" parent="F_34b5jo6EodDK-DppNW-62" vertex="1">
          <mxGeometry width="30" height="30" as="geometry">
            <mxRectangle width="30" height="30" as="alternateBounds" />
          </mxGeometry>
        </mxCell>
        <mxCell id="F_34b5jo6EodDK-DppNW-64" value="`is_closed` tinyint(1) COMMENT &#39;是否封闭 0:封闭; 1:不封闭;&#39;" style="shape=partialRectangle;overflow=hidden;connectable=0;fillColor=none;top=0;left=0;bottom=0;right=0;align=left;spacingLeft=6;" parent="F_34b5jo6EodDK-DppNW-62" vertex="1">
          <mxGeometry x="30" width="390" height="30" as="geometry">
            <mxRectangle width="390" height="30" as="alternateBounds" />
          </mxGeometry>
        </mxCell>
        <mxCell id="F_34b5jo6EodDK-DppNW-65" value="" style="shape=partialRectangle;collapsible=0;dropTarget=0;pointerEvents=0;fillColor=none;points=[[0,0.5],[1,0.5]];portConstraint=eastwest;top=0;left=0;right=0;bottom=0;" parent="F_34b5jo6EodDK-DppNW-23" vertex="1">
          <mxGeometry y="300" width="420" height="30" as="geometry" />
        </mxCell>
        <mxCell id="F_34b5jo6EodDK-DppNW-66" value="" style="shape=partialRectangle;overflow=hidden;connectable=0;fillColor=none;top=0;left=0;bottom=0;right=0;" parent="F_34b5jo6EodDK-DppNW-65" vertex="1">
          <mxGeometry width="30" height="30" as="geometry">
            <mxRectangle width="30" height="30" as="alternateBounds" />
          </mxGeometry>
        </mxCell>
        <mxCell id="F_34b5jo6EodDK-DppNW-67" value="`description` text COMMENT &#39;描述&#39;" style="shape=partialRectangle;overflow=hidden;connectable=0;fillColor=none;top=0;left=0;bottom=0;right=0;align=left;spacingLeft=6;" parent="F_34b5jo6EodDK-DppNW-65" vertex="1">
          <mxGeometry x="30" width="390" height="30" as="geometry">
            <mxRectangle width="390" height="30" as="alternateBounds" />
          </mxGeometry>
        </mxCell>
        <mxCell id="F_34b5jo6EodDK-DppNW-68" value="" style="shape=partialRectangle;collapsible=0;dropTarget=0;pointerEvents=0;fillColor=none;points=[[0,0.5],[1,0.5]];portConstraint=eastwest;top=0;left=0;right=0;bottom=0;" parent="F_34b5jo6EodDK-DppNW-23" vertex="1">
          <mxGeometry y="330" width="420" height="30" as="geometry" />
        </mxCell>
        <mxCell id="F_34b5jo6EodDK-DppNW-69" value="" style="shape=partialRectangle;overflow=hidden;connectable=0;fillColor=none;top=0;left=0;bottom=0;right=0;" parent="F_34b5jo6EodDK-DppNW-68" vertex="1">
          <mxGeometry width="30" height="30" as="geometry">
            <mxRectangle width="30" height="30" as="alternateBounds" />
          </mxGeometry>
        </mxCell>
        <mxCell id="F_34b5jo6EodDK-DppNW-70" value="`length` int(11) COMMENT &#39;长 单位:mm&#39;" style="shape=partialRectangle;overflow=hidden;connectable=0;fillColor=none;top=0;left=0;bottom=0;right=0;align=left;spacingLeft=6;" parent="F_34b5jo6EodDK-DppNW-68" vertex="1">
          <mxGeometry x="30" width="390" height="30" as="geometry">
            <mxRectangle width="390" height="30" as="alternateBounds" />
          </mxGeometry>
        </mxCell>
        <mxCell id="F_34b5jo6EodDK-DppNW-71" value="" style="shape=partialRectangle;collapsible=0;dropTarget=0;pointerEvents=0;fillColor=none;points=[[0,0.5],[1,0.5]];portConstraint=eastwest;top=0;left=0;right=0;bottom=0;" parent="F_34b5jo6EodDK-DppNW-23" vertex="1">
          <mxGeometry y="360" width="420" height="30" as="geometry" />
        </mxCell>
        <mxCell id="F_34b5jo6EodDK-DppNW-72" value="" style="shape=partialRectangle;overflow=hidden;connectable=0;fillColor=none;top=0;left=0;bottom=0;right=0;" parent="F_34b5jo6EodDK-DppNW-71" vertex="1">
          <mxGeometry width="30" height="30" as="geometry">
            <mxRectangle width="30" height="30" as="alternateBounds" />
          </mxGeometry>
        </mxCell>
        <mxCell id="F_34b5jo6EodDK-DppNW-73" value="`width` int(11) COMMENT &#39;宽 单位:mm&#39;" style="shape=partialRectangle;overflow=hidden;connectable=0;fillColor=none;top=0;left=0;bottom=0;right=0;align=left;spacingLeft=6;" parent="F_34b5jo6EodDK-DppNW-71" vertex="1">
          <mxGeometry x="30" width="390" height="30" as="geometry">
            <mxRectangle width="390" height="30" as="alternateBounds" />
          </mxGeometry>
        </mxCell>
        <mxCell id="F_34b5jo6EodDK-DppNW-74" value="" style="shape=partialRectangle;collapsible=0;dropTarget=0;pointerEvents=0;fillColor=none;points=[[0,0.5],[1,0.5]];portConstraint=eastwest;top=0;left=0;right=0;bottom=0;" parent="F_34b5jo6EodDK-DppNW-23" vertex="1">
          <mxGeometry y="390" width="420" height="30" as="geometry" />
        </mxCell>
        <mxCell id="F_34b5jo6EodDK-DppNW-75" value="" style="shape=partialRectangle;overflow=hidden;connectable=0;fillColor=none;top=0;left=0;bottom=0;right=0;" parent="F_34b5jo6EodDK-DppNW-74" vertex="1">
          <mxGeometry width="30" height="30" as="geometry">
            <mxRectangle width="30" height="30" as="alternateBounds" />
          </mxGeometry>
        </mxCell>
        <mxCell id="F_34b5jo6EodDK-DppNW-76" value="`height` int(11) COMMENT &#39;高 单位:mm&#39;" style="shape=partialRectangle;overflow=hidden;connectable=0;fillColor=none;top=0;left=0;bottom=0;right=0;align=left;spacingLeft=6;" parent="F_34b5jo6EodDK-DppNW-74" vertex="1">
          <mxGeometry x="30" width="390" height="30" as="geometry">
            <mxRectangle width="390" height="30" as="alternateBounds" />
          </mxGeometry>
        </mxCell>
        <mxCell id="F_34b5jo6EodDK-DppNW-77" value="" style="shape=partialRectangle;collapsible=0;dropTarget=0;pointerEvents=0;fillColor=none;points=[[0,0.5],[1,0.5]];portConstraint=eastwest;top=0;left=0;right=0;bottom=0;" parent="F_34b5jo6EodDK-DppNW-23" vertex="1">
          <mxGeometry y="420" width="420" height="30" as="geometry" />
        </mxCell>
        <mxCell id="F_34b5jo6EodDK-DppNW-78" value="" style="shape=partialRectangle;overflow=hidden;connectable=0;fillColor=none;top=0;left=0;bottom=0;right=0;" parent="F_34b5jo6EodDK-DppNW-77" vertex="1">
          <mxGeometry width="30" height="30" as="geometry">
            <mxRectangle width="30" height="30" as="alternateBounds" />
          </mxGeometry>
        </mxCell>
        <mxCell id="F_34b5jo6EodDK-DppNW-79" value="`status` tinyint(1) COMMENT &#39;状态 -1:删除; 0:正常; 1:禁用;&#39;" style="shape=partialRectangle;overflow=hidden;connectable=0;fillColor=none;top=0;left=0;bottom=0;right=0;align=left;spacingLeft=6;" parent="F_34b5jo6EodDK-DppNW-77" vertex="1">
          <mxGeometry x="30" width="390" height="30" as="geometry">
            <mxRectangle width="390" height="30" as="alternateBounds" />
          </mxGeometry>
        </mxCell>
        <mxCell id="F_34b5jo6EodDK-DppNW-80" value="" style="shape=partialRectangle;collapsible=0;dropTarget=0;pointerEvents=0;fillColor=none;points=[[0,0.5],[1,0.5]];portConstraint=eastwest;top=0;left=0;right=0;bottom=0;" parent="F_34b5jo6EodDK-DppNW-23" vertex="1">
          <mxGeometry y="450" width="420" height="30" as="geometry" />
        </mxCell>
        <mxCell id="F_34b5jo6EodDK-DppNW-81" value="" style="shape=partialRectangle;overflow=hidden;connectable=0;fillColor=none;top=0;left=0;bottom=0;right=0;" parent="F_34b5jo6EodDK-DppNW-80" vertex="1">
          <mxGeometry width="30" height="30" as="geometry">
            <mxRectangle width="30" height="30" as="alternateBounds" />
          </mxGeometry>
        </mxCell>
        <mxCell id="F_34b5jo6EodDK-DppNW-82" value="`creator_id` bigint(20) COMMENT &#39;创建者id&#39;" style="shape=partialRectangle;overflow=hidden;connectable=0;fillColor=none;top=0;left=0;bottom=0;right=0;align=left;spacingLeft=6;" parent="F_34b5jo6EodDK-DppNW-80" vertex="1">
          <mxGeometry x="30" width="390" height="30" as="geometry">
            <mxRectangle width="390" height="30" as="alternateBounds" />
          </mxGeometry>
        </mxCell>
        <mxCell id="btJszyg0HjMSsZluTOSx-4" value="" style="shape=partialRectangle;collapsible=0;dropTarget=0;pointerEvents=0;fillColor=none;points=[[0,0.5],[1,0.5]];portConstraint=eastwest;top=0;left=0;right=0;bottom=0;" parent="F_34b5jo6EodDK-DppNW-23" vertex="1">
          <mxGeometry y="480" width="420" height="30" as="geometry" />
        </mxCell>
        <mxCell id="btJszyg0HjMSsZluTOSx-5" value="" style="shape=partialRectangle;overflow=hidden;connectable=0;fillColor=none;top=0;left=0;bottom=0;right=0;" parent="btJszyg0HjMSsZluTOSx-4" vertex="1">
          <mxGeometry width="30" height="30" as="geometry">
            <mxRectangle width="30" height="30" as="alternateBounds" />
          </mxGeometry>
        </mxCell>
        <mxCell id="btJszyg0HjMSsZluTOSx-6" value="`creator_realname` varchar(30) COMMENT &#39;创建者姓名&#39;" style="shape=partialRectangle;overflow=hidden;connectable=0;fillColor=none;top=0;left=0;bottom=0;right=0;align=left;spacingLeft=6;" parent="btJszyg0HjMSsZluTOSx-4" vertex="1">
          <mxGeometry x="30" width="390" height="30" as="geometry">
            <mxRectangle width="390" height="30" as="alternateBounds" />
          </mxGeometry>
        </mxCell>
        <mxCell id="F_34b5jo6EodDK-DppNW-83" value="" style="shape=partialRectangle;collapsible=0;dropTarget=0;pointerEvents=0;fillColor=none;points=[[0,0.5],[1,0.5]];portConstraint=eastwest;top=0;left=0;right=0;bottom=0;" parent="F_34b5jo6EodDK-DppNW-23" vertex="1">
          <mxGeometry y="510" width="420" height="30" as="geometry" />
        </mxCell>
        <mxCell id="F_34b5jo6EodDK-DppNW-84" value="" style="shape=partialRectangle;overflow=hidden;connectable=0;fillColor=none;top=0;left=0;bottom=0;right=0;" parent="F_34b5jo6EodDK-DppNW-83" vertex="1">
          <mxGeometry width="30" height="30" as="geometry">
            <mxRectangle width="30" height="30" as="alternateBounds" />
          </mxGeometry>
        </mxCell>
        <mxCell id="F_34b5jo6EodDK-DppNW-85" value="`editor_id` bigint(20) COMMENT &#39;最后更新人id&#39;" style="shape=partialRectangle;overflow=hidden;connectable=0;fillColor=none;top=0;left=0;bottom=0;right=0;align=left;spacingLeft=6;" parent="F_34b5jo6EodDK-DppNW-83" vertex="1">
          <mxGeometry x="30" width="390" height="30" as="geometry">
            <mxRectangle width="390" height="30" as="alternateBounds" />
          </mxGeometry>
        </mxCell>
        <mxCell id="btJszyg0HjMSsZluTOSx-7" value="" style="shape=partialRectangle;collapsible=0;dropTarget=0;pointerEvents=0;fillColor=none;points=[[0,0.5],[1,0.5]];portConstraint=eastwest;top=0;left=0;right=0;bottom=0;" parent="F_34b5jo6EodDK-DppNW-23" vertex="1">
          <mxGeometry y="540" width="420" height="30" as="geometry" />
        </mxCell>
        <mxCell id="btJszyg0HjMSsZluTOSx-8" value="" style="shape=partialRectangle;overflow=hidden;connectable=0;fillColor=none;top=0;left=0;bottom=0;right=0;" parent="btJszyg0HjMSsZluTOSx-7" vertex="1">
          <mxGeometry width="30" height="30" as="geometry">
            <mxRectangle width="30" height="30" as="alternateBounds" />
          </mxGeometry>
        </mxCell>
        <mxCell id="btJszyg0HjMSsZluTOSx-9" value="`editor_realname` varchar(30) COMMENT &#39;最后更新人姓名&#39;" style="shape=partialRectangle;overflow=hidden;connectable=0;fillColor=none;top=0;left=0;bottom=0;right=0;align=left;spacingLeft=6;" parent="btJszyg0HjMSsZluTOSx-7" vertex="1">
          <mxGeometry x="30" width="390" height="30" as="geometry">
            <mxRectangle width="390" height="30" as="alternateBounds" />
          </mxGeometry>
        </mxCell>
        <mxCell id="F_34b5jo6EodDK-DppNW-86" value="" style="shape=partialRectangle;collapsible=0;dropTarget=0;pointerEvents=0;fillColor=none;points=[[0,0.5],[1,0.5]];portConstraint=eastwest;top=0;left=0;right=0;bottom=0;" parent="F_34b5jo6EodDK-DppNW-23" vertex="1">
          <mxGeometry y="570" width="420" height="30" as="geometry" />
        </mxCell>
        <mxCell id="F_34b5jo6EodDK-DppNW-87" value="" style="shape=partialRectangle;overflow=hidden;connectable=0;fillColor=none;top=0;left=0;bottom=0;right=0;" parent="F_34b5jo6EodDK-DppNW-86" vertex="1">
          <mxGeometry width="30" height="30" as="geometry">
            <mxRectangle width="30" height="30" as="alternateBounds" />
          </mxGeometry>
        </mxCell>
        <mxCell id="F_34b5jo6EodDK-DppNW-88" value="`created_at` datetime COMMENT &#39;创建时间&#39;" style="shape=partialRectangle;overflow=hidden;connectable=0;fillColor=none;top=0;left=0;bottom=0;right=0;align=left;spacingLeft=6;" parent="F_34b5jo6EodDK-DppNW-86" vertex="1">
          <mxGeometry x="30" width="390" height="30" as="geometry">
            <mxRectangle width="390" height="30" as="alternateBounds" />
          </mxGeometry>
        </mxCell>
        <mxCell id="F_34b5jo6EodDK-DppNW-89" value="" style="shape=partialRectangle;collapsible=0;dropTarget=0;pointerEvents=0;fillColor=none;points=[[0,0.5],[1,0.5]];portConstraint=eastwest;top=0;left=0;right=0;bottom=0;" parent="F_34b5jo6EodDK-DppNW-23" vertex="1">
          <mxGeometry y="600" width="420" height="30" as="geometry" />
        </mxCell>
        <mxCell id="F_34b5jo6EodDK-DppNW-90" value="" style="shape=partialRectangle;overflow=hidden;connectable=0;fillColor=none;top=0;left=0;bottom=0;right=0;" parent="F_34b5jo6EodDK-DppNW-89" vertex="1">
          <mxGeometry width="30" height="30" as="geometry">
            <mxRectangle width="30" height="30" as="alternateBounds" />
          </mxGeometry>
        </mxCell>
        <mxCell id="F_34b5jo6EodDK-DppNW-91" value="`updated_at` datetime COMMENT &#39;编辑时间&#39;" style="shape=partialRectangle;overflow=hidden;connectable=0;fillColor=none;top=0;left=0;bottom=0;right=0;align=left;spacingLeft=6;" parent="F_34b5jo6EodDK-DppNW-89" vertex="1">
          <mxGeometry x="30" width="390" height="30" as="geometry">
            <mxRectangle width="390" height="30" as="alternateBounds" />
          </mxGeometry>
        </mxCell>
        <mxCell id="5UsDiWK79urw-ou_i29c-4" value="" style="shape=partialRectangle;collapsible=0;dropTarget=0;pointerEvents=0;fillColor=none;points=[[0,0.5],[1,0.5]];portConstraint=eastwest;top=0;left=0;right=0;bottom=0;" vertex="1" parent="F_34b5jo6EodDK-DppNW-23">
          <mxGeometry y="630" width="420" height="30" as="geometry" />
        </mxCell>
        <mxCell id="5UsDiWK79urw-ou_i29c-5" value="" style="shape=partialRectangle;overflow=hidden;connectable=0;fillColor=none;top=0;left=0;bottom=0;right=0;" vertex="1" parent="5UsDiWK79urw-ou_i29c-4">
          <mxGeometry width="30" height="30" as="geometry">
            <mxRectangle width="30" height="30" as="alternateBounds" />
          </mxGeometry>
        </mxCell>
        <mxCell id="5UsDiWK79urw-ou_i29c-6" value="`deleted_at` datetime COMMENT &#39;删除时间&#39;" style="shape=partialRectangle;overflow=hidden;connectable=0;fillColor=none;top=0;left=0;bottom=0;right=0;align=left;spacingLeft=6;" vertex="1" parent="5UsDiWK79urw-ou_i29c-4">
          <mxGeometry x="30" width="390" height="30" as="geometry">
            <mxRectangle width="390" height="30" as="alternateBounds" />
          </mxGeometry>
        </mxCell>
        <mxCell id="F_34b5jo6EodDK-DppNW-170" value="" style="edgeStyle=entityRelationEdgeStyle;endArrow=ERzeroToMany;startArrow=ERone;endFill=1;startFill=0;exitX=1;exitY=0.5;exitDx=0;exitDy=0;" parent="1" source="F_34b5jo6EodDK-DppNW-24" target="F_34b5jo6EodDK-DppNW-175" edge="1">
          <mxGeometry width="100" height="100" relative="1" as="geometry">
            <mxPoint x="460" y="390" as="sourcePoint" />
            <mxPoint x="450" y="840" as="targetPoint" />
          </mxGeometry>
        </mxCell>
        <mxCell id="F_34b5jo6EodDK-DppNW-222" value="1:N" style="edgeLabel;html=1;align=center;verticalAlign=middle;resizable=0;points=[];" parent="F_34b5jo6EodDK-DppNW-170" vertex="1" connectable="0">
          <mxGeometry x="-0.0673" y="4" relative="1" as="geometry">
            <mxPoint as="offset" />
          </mxGeometry>
        </mxCell>
        <mxCell id="F_34b5jo6EodDK-DppNW-171" value="asset_files 资产文件表" style="shape=table;startSize=30;container=1;collapsible=1;childLayout=tableLayout;fixedRows=1;rowLines=0;fontStyle=1;align=center;resizeLast=1;" parent="1" vertex="1">
          <mxGeometry x="720" y="400" width="360" height="280" as="geometry" />
        </mxCell>
        <mxCell id="F_34b5jo6EodDK-DppNW-172" value="" style="shape=partialRectangle;collapsible=0;dropTarget=0;pointerEvents=0;fillColor=none;points=[[0,0.5],[1,0.5]];portConstraint=eastwest;top=0;left=0;right=0;bottom=1;" parent="F_34b5jo6EodDK-DppNW-171" vertex="1">
          <mxGeometry y="30" width="360" height="30" as="geometry" />
        </mxCell>
        <mxCell id="F_34b5jo6EodDK-DppNW-173" value="PK" style="shape=partialRectangle;overflow=hidden;connectable=0;fillColor=none;top=0;left=0;bottom=0;right=0;fontStyle=1;" parent="F_34b5jo6EodDK-DppNW-172" vertex="1">
          <mxGeometry width="30" height="30" as="geometry">
            <mxRectangle width="30" height="30" as="alternateBounds" />
          </mxGeometry>
        </mxCell>
        <mxCell id="F_34b5jo6EodDK-DppNW-174" value="`id` bigint(20) COMMENT &#39;自增ID&#39; " style="shape=partialRectangle;overflow=hidden;connectable=0;fillColor=none;top=0;left=0;bottom=0;right=0;align=left;spacingLeft=6;fontStyle=5;" parent="F_34b5jo6EodDK-DppNW-172" vertex="1">
          <mxGeometry x="30" width="330" height="30" as="geometry">
            <mxRectangle width="330" height="30" as="alternateBounds" />
          </mxGeometry>
        </mxCell>
        <mxCell id="F_34b5jo6EodDK-DppNW-175" value="" style="shape=partialRectangle;collapsible=0;dropTarget=0;pointerEvents=0;fillColor=none;points=[[0,0.5],[1,0.5]];portConstraint=eastwest;top=0;left=0;right=0;bottom=0;" parent="F_34b5jo6EodDK-DppNW-171" vertex="1">
          <mxGeometry y="60" width="360" height="30" as="geometry" />
        </mxCell>
        <mxCell id="F_34b5jo6EodDK-DppNW-176" value="FK1" style="shape=partialRectangle;overflow=hidden;connectable=0;fillColor=none;top=0;left=0;bottom=0;right=0;" parent="F_34b5jo6EodDK-DppNW-175" vertex="1">
          <mxGeometry width="30" height="30" as="geometry">
            <mxRectangle width="30" height="30" as="alternateBounds" />
          </mxGeometry>
        </mxCell>
        <mxCell id="F_34b5jo6EodDK-DppNW-177" value="`asset_id` bigint(20) COMMENT &#39;资产ID&#39;" style="shape=partialRectangle;overflow=hidden;connectable=0;fillColor=none;top=0;left=0;bottom=0;right=0;align=left;spacingLeft=6;" parent="F_34b5jo6EodDK-DppNW-175" vertex="1">
          <mxGeometry x="30" width="330" height="30" as="geometry">
            <mxRectangle width="330" height="30" as="alternateBounds" />
          </mxGeometry>
        </mxCell>
        <mxCell id="F_34b5jo6EodDK-DppNW-178" value="" style="shape=partialRectangle;collapsible=0;dropTarget=0;pointerEvents=0;fillColor=none;points=[[0,0.5],[1,0.5]];portConstraint=eastwest;top=0;left=0;right=0;bottom=0;" parent="F_34b5jo6EodDK-DppNW-171" vertex="1">
          <mxGeometry y="90" width="360" height="30" as="geometry" />
        </mxCell>
        <mxCell id="F_34b5jo6EodDK-DppNW-179" value="" style="shape=partialRectangle;overflow=hidden;connectable=0;fillColor=none;top=0;left=0;bottom=0;right=0;" parent="F_34b5jo6EodDK-DppNW-178" vertex="1">
          <mxGeometry width="30" height="30" as="geometry">
            <mxRectangle width="30" height="30" as="alternateBounds" />
          </mxGeometry>
        </mxCell>
        <mxCell id="F_34b5jo6EodDK-DppNW-180" value="`file_source` varchar(255) COMMENT &#39;资产文件&#39;" style="shape=partialRectangle;overflow=hidden;connectable=0;fillColor=none;top=0;left=0;bottom=0;right=0;align=left;spacingLeft=6;" parent="F_34b5jo6EodDK-DppNW-178" vertex="1">
          <mxGeometry x="30" width="330" height="30" as="geometry">
            <mxRectangle width="330" height="30" as="alternateBounds" />
          </mxGeometry>
        </mxCell>
        <mxCell id="btJszyg0HjMSsZluTOSx-13" value="" style="shape=partialRectangle;collapsible=0;dropTarget=0;pointerEvents=0;fillColor=none;points=[[0,0.5],[1,0.5]];portConstraint=eastwest;top=0;left=0;right=0;bottom=0;" parent="F_34b5jo6EodDK-DppNW-171" vertex="1">
          <mxGeometry y="120" width="360" height="30" as="geometry" />
        </mxCell>
        <mxCell id="btJszyg0HjMSsZluTOSx-14" value="" style="shape=partialRectangle;overflow=hidden;connectable=0;fillColor=none;top=0;left=0;bottom=0;right=0;" parent="btJszyg0HjMSsZluTOSx-13" vertex="1">
          <mxGeometry width="30" height="30" as="geometry">
            <mxRectangle width="30" height="30" as="alternateBounds" />
          </mxGeometry>
        </mxCell>
        <mxCell id="btJszyg0HjMSsZluTOSx-15" value="`file_type` tinyint(1) COMMENT &#39;资产文件类型&#39;" style="shape=partialRectangle;overflow=hidden;connectable=0;fillColor=none;top=0;left=0;bottom=0;right=0;align=left;spacingLeft=6;" parent="btJszyg0HjMSsZluTOSx-13" vertex="1">
          <mxGeometry x="30" width="330" height="30" as="geometry">
            <mxRectangle width="330" height="30" as="alternateBounds" />
          </mxGeometry>
        </mxCell>
        <mxCell id="F_34b5jo6EodDK-DppNW-187" value="" style="shape=partialRectangle;collapsible=0;dropTarget=0;pointerEvents=0;fillColor=none;points=[[0,0.5],[1,0.5]];portConstraint=eastwest;top=0;left=0;right=0;bottom=0;" parent="F_34b5jo6EodDK-DppNW-171" vertex="1">
          <mxGeometry y="150" width="360" height="30" as="geometry" />
        </mxCell>
        <mxCell id="F_34b5jo6EodDK-DppNW-188" value="" style="shape=partialRectangle;overflow=hidden;connectable=0;fillColor=none;top=0;left=0;bottom=0;right=0;" parent="F_34b5jo6EodDK-DppNW-187" vertex="1">
          <mxGeometry width="30" height="30" as="geometry">
            <mxRectangle width="30" height="30" as="alternateBounds" />
          </mxGeometry>
        </mxCell>
        <mxCell id="F_34b5jo6EodDK-DppNW-189" value="`status` tinyint(1) COMMENT &#39;状态 -1:删除; 0:正常; 1:禁用;&#39;" style="shape=partialRectangle;overflow=hidden;connectable=0;fillColor=none;top=0;left=0;bottom=0;right=0;align=left;spacingLeft=6;" parent="F_34b5jo6EodDK-DppNW-187" vertex="1">
          <mxGeometry x="30" width="330" height="30" as="geometry">
            <mxRectangle width="330" height="30" as="alternateBounds" />
          </mxGeometry>
        </mxCell>
        <mxCell id="F_34b5jo6EodDK-DppNW-181" value="" style="shape=partialRectangle;collapsible=0;dropTarget=0;pointerEvents=0;fillColor=none;points=[[0,0.5],[1,0.5]];portConstraint=eastwest;top=0;left=0;right=0;bottom=0;" parent="F_34b5jo6EodDK-DppNW-171" vertex="1">
          <mxGeometry y="180" width="360" height="30" as="geometry" />
        </mxCell>
        <mxCell id="F_34b5jo6EodDK-DppNW-182" value="" style="shape=partialRectangle;overflow=hidden;connectable=0;fillColor=none;top=0;left=0;bottom=0;right=0;" parent="F_34b5jo6EodDK-DppNW-181" vertex="1">
          <mxGeometry width="30" height="30" as="geometry">
            <mxRectangle width="30" height="30" as="alternateBounds" />
          </mxGeometry>
        </mxCell>
        <mxCell id="F_34b5jo6EodDK-DppNW-183" value="`created_at` datetime COMMENT &#39;创建时间&#39;" style="shape=partialRectangle;overflow=hidden;connectable=0;fillColor=none;top=0;left=0;bottom=0;right=0;align=left;spacingLeft=6;" parent="F_34b5jo6EodDK-DppNW-181" vertex="1">
          <mxGeometry x="30" width="330" height="30" as="geometry">
            <mxRectangle width="330" height="30" as="alternateBounds" />
          </mxGeometry>
        </mxCell>
        <mxCell id="F_34b5jo6EodDK-DppNW-184" value="" style="shape=partialRectangle;collapsible=0;dropTarget=0;pointerEvents=0;fillColor=none;points=[[0,0.5],[1,0.5]];portConstraint=eastwest;top=0;left=0;right=0;bottom=0;" parent="F_34b5jo6EodDK-DppNW-171" vertex="1">
          <mxGeometry y="210" width="360" height="30" as="geometry" />
        </mxCell>
        <mxCell id="F_34b5jo6EodDK-DppNW-185" value="" style="shape=partialRectangle;overflow=hidden;connectable=0;fillColor=none;top=0;left=0;bottom=0;right=0;" parent="F_34b5jo6EodDK-DppNW-184" vertex="1">
          <mxGeometry width="30" height="30" as="geometry">
            <mxRectangle width="30" height="30" as="alternateBounds" />
          </mxGeometry>
        </mxCell>
        <mxCell id="F_34b5jo6EodDK-DppNW-186" value="`updated_at` datetime COMMENT &#39;编辑时间&#39;" style="shape=partialRectangle;overflow=hidden;connectable=0;fillColor=none;top=0;left=0;bottom=0;right=0;align=left;spacingLeft=6;" parent="F_34b5jo6EodDK-DppNW-184" vertex="1">
          <mxGeometry x="30" width="330" height="30" as="geometry">
            <mxRectangle width="330" height="30" as="alternateBounds" />
          </mxGeometry>
        </mxCell>
        <mxCell id="5UsDiWK79urw-ou_i29c-22" value="" style="shape=partialRectangle;collapsible=0;dropTarget=0;pointerEvents=0;fillColor=none;points=[[0,0.5],[1,0.5]];portConstraint=eastwest;top=0;left=0;right=0;bottom=0;" vertex="1" parent="F_34b5jo6EodDK-DppNW-171">
          <mxGeometry y="240" width="360" height="30" as="geometry" />
        </mxCell>
        <mxCell id="5UsDiWK79urw-ou_i29c-23" value="" style="shape=partialRectangle;overflow=hidden;connectable=0;fillColor=none;top=0;left=0;bottom=0;right=0;" vertex="1" parent="5UsDiWK79urw-ou_i29c-22">
          <mxGeometry width="30" height="30" as="geometry">
            <mxRectangle width="30" height="30" as="alternateBounds" />
          </mxGeometry>
        </mxCell>
        <mxCell id="5UsDiWK79urw-ou_i29c-24" value="`deleted_at` datetime COMMENT &#39;删除时间&#39;" style="shape=partialRectangle;overflow=hidden;connectable=0;fillColor=none;top=0;left=0;bottom=0;right=0;align=left;spacingLeft=6;" vertex="1" parent="5UsDiWK79urw-ou_i29c-22">
          <mxGeometry x="30" width="330" height="30" as="geometry">
            <mxRectangle width="330" height="30" as="alternateBounds" />
          </mxGeometry>
        </mxCell>
        <mxCell id="F_34b5jo6EodDK-DppNW-196" value="asset_preview 资产文件预览表" style="shape=table;startSize=30;container=1;collapsible=1;childLayout=tableLayout;fixedRows=1;rowLines=0;fontStyle=1;align=center;resizeLast=1;" parent="1" vertex="1">
          <mxGeometry x="720" y="720" width="360" height="280" as="geometry" />
        </mxCell>
        <mxCell id="F_34b5jo6EodDK-DppNW-197" value="" style="shape=partialRectangle;collapsible=0;dropTarget=0;pointerEvents=0;fillColor=none;points=[[0,0.5],[1,0.5]];portConstraint=eastwest;top=0;left=0;right=0;bottom=1;" parent="F_34b5jo6EodDK-DppNW-196" vertex="1">
          <mxGeometry y="30" width="360" height="30" as="geometry" />
        </mxCell>
        <mxCell id="F_34b5jo6EodDK-DppNW-198" value="PK" style="shape=partialRectangle;overflow=hidden;connectable=0;fillColor=none;top=0;left=0;bottom=0;right=0;fontStyle=1;" parent="F_34b5jo6EodDK-DppNW-197" vertex="1">
          <mxGeometry width="30" height="30" as="geometry">
            <mxRectangle width="30" height="30" as="alternateBounds" />
          </mxGeometry>
        </mxCell>
        <mxCell id="F_34b5jo6EodDK-DppNW-199" value="`id` bigint(20) COMMENT &#39;自增ID&#39; " style="shape=partialRectangle;overflow=hidden;connectable=0;fillColor=none;top=0;left=0;bottom=0;right=0;align=left;spacingLeft=6;fontStyle=5;" parent="F_34b5jo6EodDK-DppNW-197" vertex="1">
          <mxGeometry x="30" width="330" height="30" as="geometry">
            <mxRectangle width="330" height="30" as="alternateBounds" />
          </mxGeometry>
        </mxCell>
        <mxCell id="F_34b5jo6EodDK-DppNW-200" value="" style="shape=partialRectangle;collapsible=0;dropTarget=0;pointerEvents=0;fillColor=none;points=[[0,0.5],[1,0.5]];portConstraint=eastwest;top=0;left=0;right=0;bottom=0;" parent="F_34b5jo6EodDK-DppNW-196" vertex="1">
          <mxGeometry y="60" width="360" height="30" as="geometry" />
        </mxCell>
        <mxCell id="F_34b5jo6EodDK-DppNW-201" value="FK1" style="shape=partialRectangle;overflow=hidden;connectable=0;fillColor=none;top=0;left=0;bottom=0;right=0;" parent="F_34b5jo6EodDK-DppNW-200" vertex="1">
          <mxGeometry width="30" height="30" as="geometry">
            <mxRectangle width="30" height="30" as="alternateBounds" />
          </mxGeometry>
        </mxCell>
        <mxCell id="F_34b5jo6EodDK-DppNW-202" value="`asset_id` bigint(20) COMMENT &#39;资产ID&#39;" style="shape=partialRectangle;overflow=hidden;connectable=0;fillColor=none;top=0;left=0;bottom=0;right=0;align=left;spacingLeft=6;" parent="F_34b5jo6EodDK-DppNW-200" vertex="1">
          <mxGeometry x="30" width="330" height="30" as="geometry">
            <mxRectangle width="330" height="30" as="alternateBounds" />
          </mxGeometry>
        </mxCell>
        <mxCell id="F_34b5jo6EodDK-DppNW-203" value="" style="shape=partialRectangle;collapsible=0;dropTarget=0;pointerEvents=0;fillColor=none;points=[[0,0.5],[1,0.5]];portConstraint=eastwest;top=0;left=0;right=0;bottom=0;" parent="F_34b5jo6EodDK-DppNW-196" vertex="1">
          <mxGeometry y="90" width="360" height="30" as="geometry" />
        </mxCell>
        <mxCell id="F_34b5jo6EodDK-DppNW-204" value="" style="shape=partialRectangle;overflow=hidden;connectable=0;fillColor=none;top=0;left=0;bottom=0;right=0;" parent="F_34b5jo6EodDK-DppNW-203" vertex="1">
          <mxGeometry width="30" height="30" as="geometry">
            <mxRectangle width="30" height="30" as="alternateBounds" />
          </mxGeometry>
        </mxCell>
        <mxCell id="F_34b5jo6EodDK-DppNW-205" value="`img_source` varchar(255) COMMENT &#39;资产文件&#39;" style="shape=partialRectangle;overflow=hidden;connectable=0;fillColor=none;top=0;left=0;bottom=0;right=0;align=left;spacingLeft=6;" parent="F_34b5jo6EodDK-DppNW-203" vertex="1">
          <mxGeometry x="30" width="330" height="30" as="geometry">
            <mxRectangle width="330" height="30" as="alternateBounds" />
          </mxGeometry>
        </mxCell>
        <mxCell id="btJszyg0HjMSsZluTOSx-1" value="" style="shape=partialRectangle;collapsible=0;dropTarget=0;pointerEvents=0;fillColor=none;points=[[0,0.5],[1,0.5]];portConstraint=eastwest;top=0;left=0;right=0;bottom=0;" parent="F_34b5jo6EodDK-DppNW-196" vertex="1">
          <mxGeometry y="120" width="360" height="30" as="geometry" />
        </mxCell>
        <mxCell id="btJszyg0HjMSsZluTOSx-2" value="" style="shape=partialRectangle;overflow=hidden;connectable=0;fillColor=none;top=0;left=0;bottom=0;right=0;" parent="btJszyg0HjMSsZluTOSx-1" vertex="1">
          <mxGeometry width="30" height="30" as="geometry">
            <mxRectangle width="30" height="30" as="alternateBounds" />
          </mxGeometry>
        </mxCell>
        <mxCell id="btJszyg0HjMSsZluTOSx-3" value="`is_default` tinyint(1) COMMENT &#39;默认预览图 1:是 0否&#39;" style="shape=partialRectangle;overflow=hidden;connectable=0;fillColor=none;top=0;left=0;bottom=0;right=0;align=left;spacingLeft=6;" parent="btJszyg0HjMSsZluTOSx-1" vertex="1">
          <mxGeometry x="30" width="330" height="30" as="geometry">
            <mxRectangle width="330" height="30" as="alternateBounds" />
          </mxGeometry>
        </mxCell>
        <mxCell id="F_34b5jo6EodDK-DppNW-206" value="" style="shape=partialRectangle;collapsible=0;dropTarget=0;pointerEvents=0;fillColor=none;points=[[0,0.5],[1,0.5]];portConstraint=eastwest;top=0;left=0;right=0;bottom=0;" parent="F_34b5jo6EodDK-DppNW-196" vertex="1">
          <mxGeometry y="150" width="360" height="30" as="geometry" />
        </mxCell>
        <mxCell id="F_34b5jo6EodDK-DppNW-207" value="" style="shape=partialRectangle;overflow=hidden;connectable=0;fillColor=none;top=0;left=0;bottom=0;right=0;" parent="F_34b5jo6EodDK-DppNW-206" vertex="1">
          <mxGeometry width="30" height="30" as="geometry">
            <mxRectangle width="30" height="30" as="alternateBounds" />
          </mxGeometry>
        </mxCell>
        <mxCell id="F_34b5jo6EodDK-DppNW-208" value="`status` tinyint(1) COMMENT &#39;状态 -1:删除; 0:正常; 1:禁用;&#39;" style="shape=partialRectangle;overflow=hidden;connectable=0;fillColor=none;top=0;left=0;bottom=0;right=0;align=left;spacingLeft=6;" parent="F_34b5jo6EodDK-DppNW-206" vertex="1">
          <mxGeometry x="30" width="330" height="30" as="geometry">
            <mxRectangle width="330" height="30" as="alternateBounds" />
          </mxGeometry>
        </mxCell>
        <mxCell id="F_34b5jo6EodDK-DppNW-215" value="" style="shape=partialRectangle;collapsible=0;dropTarget=0;pointerEvents=0;fillColor=none;points=[[0,0.5],[1,0.5]];portConstraint=eastwest;top=0;left=0;right=0;bottom=0;" parent="F_34b5jo6EodDK-DppNW-196" vertex="1">
          <mxGeometry y="180" width="360" height="30" as="geometry" />
        </mxCell>
        <mxCell id="F_34b5jo6EodDK-DppNW-216" value="" style="shape=partialRectangle;overflow=hidden;connectable=0;fillColor=none;top=0;left=0;bottom=0;right=0;" parent="F_34b5jo6EodDK-DppNW-215" vertex="1">
          <mxGeometry width="30" height="30" as="geometry">
            <mxRectangle width="30" height="30" as="alternateBounds" />
          </mxGeometry>
        </mxCell>
        <mxCell id="F_34b5jo6EodDK-DppNW-217" value="`created_at` datetime COMMENT &#39;创建时间&#39;" style="shape=partialRectangle;overflow=hidden;connectable=0;fillColor=none;top=0;left=0;bottom=0;right=0;align=left;spacingLeft=6;" parent="F_34b5jo6EodDK-DppNW-215" vertex="1">
          <mxGeometry x="30" width="330" height="30" as="geometry">
            <mxRectangle width="330" height="30" as="alternateBounds" />
          </mxGeometry>
        </mxCell>
        <mxCell id="F_34b5jo6EodDK-DppNW-218" value="" style="shape=partialRectangle;collapsible=0;dropTarget=0;pointerEvents=0;fillColor=none;points=[[0,0.5],[1,0.5]];portConstraint=eastwest;top=0;left=0;right=0;bottom=0;" parent="F_34b5jo6EodDK-DppNW-196" vertex="1">
          <mxGeometry y="210" width="360" height="30" as="geometry" />
        </mxCell>
        <mxCell id="F_34b5jo6EodDK-DppNW-219" value="" style="shape=partialRectangle;overflow=hidden;connectable=0;fillColor=none;top=0;left=0;bottom=0;right=0;" parent="F_34b5jo6EodDK-DppNW-218" vertex="1">
          <mxGeometry width="30" height="30" as="geometry">
            <mxRectangle width="30" height="30" as="alternateBounds" />
          </mxGeometry>
        </mxCell>
        <mxCell id="F_34b5jo6EodDK-DppNW-220" value="`updated_at` datetime COMMENT &#39;编辑时间&#39;" style="shape=partialRectangle;overflow=hidden;connectable=0;fillColor=none;top=0;left=0;bottom=0;right=0;align=left;spacingLeft=6;" parent="F_34b5jo6EodDK-DppNW-218" vertex="1">
          <mxGeometry x="30" width="330" height="30" as="geometry">
            <mxRectangle width="330" height="30" as="alternateBounds" />
          </mxGeometry>
        </mxCell>
        <mxCell id="5UsDiWK79urw-ou_i29c-25" value="" style="shape=partialRectangle;collapsible=0;dropTarget=0;pointerEvents=0;fillColor=none;points=[[0,0.5],[1,0.5]];portConstraint=eastwest;top=0;left=0;right=0;bottom=0;" vertex="1" parent="F_34b5jo6EodDK-DppNW-196">
          <mxGeometry y="240" width="360" height="30" as="geometry" />
        </mxCell>
        <mxCell id="5UsDiWK79urw-ou_i29c-26" value="" style="shape=partialRectangle;overflow=hidden;connectable=0;fillColor=none;top=0;left=0;bottom=0;right=0;" vertex="1" parent="5UsDiWK79urw-ou_i29c-25">
          <mxGeometry width="30" height="30" as="geometry">
            <mxRectangle width="30" height="30" as="alternateBounds" />
          </mxGeometry>
        </mxCell>
        <mxCell id="5UsDiWK79urw-ou_i29c-27" value="`deleted_at` datetime COMMENT &#39;删除时间&#39;" style="shape=partialRectangle;overflow=hidden;connectable=0;fillColor=none;top=0;left=0;bottom=0;right=0;align=left;spacingLeft=6;" vertex="1" parent="5UsDiWK79urw-ou_i29c-25">
          <mxGeometry x="30" width="330" height="30" as="geometry">
            <mxRectangle width="330" height="30" as="alternateBounds" />
          </mxGeometry>
        </mxCell>
        <mxCell id="F_34b5jo6EodDK-DppNW-223" value="" style="edgeStyle=entityRelationEdgeStyle;fontSize=12;html=1;endArrow=ERzeroToMany;endFill=1;rounded=0;exitX=1;exitY=0.5;exitDx=0;exitDy=0;" parent="1" source="F_34b5jo6EodDK-DppNW-24" target="F_34b5jo6EodDK-DppNW-200" edge="1">
          <mxGeometry width="100" height="100" relative="1" as="geometry">
            <mxPoint x="660" y="290" as="sourcePoint" />
            <mxPoint x="670" y="520" as="targetPoint" />
          </mxGeometry>
        </mxCell>
        <mxCell id="F_34b5jo6EodDK-DppNW-224" value="1:N" style="edgeLabel;html=1;align=center;verticalAlign=middle;resizable=0;points=[];" parent="F_34b5jo6EodDK-DppNW-223" vertex="1" connectable="0">
          <mxGeometry x="-0.0154" y="2" relative="1" as="geometry">
            <mxPoint as="offset" />
          </mxGeometry>
        </mxCell>
        <mxCell id="5UsDiWK79urw-ou_i29c-28" value="asset_type 资产类型" style="shape=table;startSize=30;container=1;collapsible=1;childLayout=tableLayout;fixedRows=1;rowLines=0;fontStyle=1;align=center;resizeLast=1;" vertex="1" parent="1">
          <mxGeometry x="660" y="1030" width="360" height="280" as="geometry" />
        </mxCell>
        <mxCell id="5UsDiWK79urw-ou_i29c-29" value="" style="shape=partialRectangle;collapsible=0;dropTarget=0;pointerEvents=0;fillColor=none;points=[[0,0.5],[1,0.5]];portConstraint=eastwest;top=0;left=0;right=0;bottom=1;" vertex="1" parent="5UsDiWK79urw-ou_i29c-28">
          <mxGeometry y="30" width="360" height="30" as="geometry" />
        </mxCell>
        <mxCell id="5UsDiWK79urw-ou_i29c-30" value="PK" style="shape=partialRectangle;overflow=hidden;connectable=0;fillColor=none;top=0;left=0;bottom=0;right=0;fontStyle=1;" vertex="1" parent="5UsDiWK79urw-ou_i29c-29">
          <mxGeometry width="30" height="30" as="geometry">
            <mxRectangle width="30" height="30" as="alternateBounds" />
          </mxGeometry>
        </mxCell>
        <mxCell id="5UsDiWK79urw-ou_i29c-31" value="`id` bigint(20) COMMENT &#39;自增ID&#39; " style="shape=partialRectangle;overflow=hidden;connectable=0;fillColor=none;top=0;left=0;bottom=0;right=0;align=left;spacingLeft=6;fontStyle=5;" vertex="1" parent="5UsDiWK79urw-ou_i29c-29">
          <mxGeometry x="30" width="330" height="30" as="geometry">
            <mxRectangle width="330" height="30" as="alternateBounds" />
          </mxGeometry>
        </mxCell>
        <mxCell id="5UsDiWK79urw-ou_i29c-32" value="" style="shape=partialRectangle;collapsible=0;dropTarget=0;pointerEvents=0;fillColor=none;points=[[0,0.5],[1,0.5]];portConstraint=eastwest;top=0;left=0;right=0;bottom=0;" vertex="1" parent="5UsDiWK79urw-ou_i29c-28">
          <mxGeometry y="60" width="360" height="30" as="geometry" />
        </mxCell>
        <mxCell id="5UsDiWK79urw-ou_i29c-33" value="" style="shape=partialRectangle;overflow=hidden;connectable=0;fillColor=none;top=0;left=0;bottom=0;right=0;" vertex="1" parent="5UsDiWK79urw-ou_i29c-32">
          <mxGeometry width="30" height="30" as="geometry">
            <mxRectangle width="30" height="30" as="alternateBounds" />
          </mxGeometry>
        </mxCell>
        <mxCell id="5UsDiWK79urw-ou_i29c-34" value="`name` varchar(64) COMMENT &#39;类型名称&#39;" style="shape=partialRectangle;overflow=hidden;connectable=0;fillColor=none;top=0;left=0;bottom=0;right=0;align=left;spacingLeft=6;" vertex="1" parent="5UsDiWK79urw-ou_i29c-32">
          <mxGeometry x="30" width="330" height="30" as="geometry">
            <mxRectangle width="330" height="30" as="alternateBounds" />
          </mxGeometry>
        </mxCell>
        <mxCell id="5UsDiWK79urw-ou_i29c-35" value="" style="shape=partialRectangle;collapsible=0;dropTarget=0;pointerEvents=0;fillColor=none;points=[[0,0.5],[1,0.5]];portConstraint=eastwest;top=0;left=0;right=0;bottom=0;" vertex="1" parent="5UsDiWK79urw-ou_i29c-28">
          <mxGeometry y="90" width="360" height="30" as="geometry" />
        </mxCell>
        <mxCell id="5UsDiWK79urw-ou_i29c-36" value="" style="shape=partialRectangle;overflow=hidden;connectable=0;fillColor=none;top=0;left=0;bottom=0;right=0;" vertex="1" parent="5UsDiWK79urw-ou_i29c-35">
          <mxGeometry width="30" height="30" as="geometry">
            <mxRectangle width="30" height="30" as="alternateBounds" />
          </mxGeometry>
        </mxCell>
        <mxCell id="5UsDiWK79urw-ou_i29c-37" value="`name_en` varchar(64) COMMENT &#39;英文名称&#39;" style="shape=partialRectangle;overflow=hidden;connectable=0;fillColor=none;top=0;left=0;bottom=0;right=0;align=left;spacingLeft=6;" vertex="1" parent="5UsDiWK79urw-ou_i29c-35">
          <mxGeometry x="30" width="330" height="30" as="geometry">
            <mxRectangle width="330" height="30" as="alternateBounds" />
          </mxGeometry>
        </mxCell>
        <mxCell id="5UsDiWK79urw-ou_i29c-38" value="" style="shape=partialRectangle;collapsible=0;dropTarget=0;pointerEvents=0;fillColor=none;points=[[0,0.5],[1,0.5]];portConstraint=eastwest;top=0;left=0;right=0;bottom=0;" vertex="1" parent="5UsDiWK79urw-ou_i29c-28">
          <mxGeometry y="120" width="360" height="30" as="geometry" />
        </mxCell>
        <mxCell id="5UsDiWK79urw-ou_i29c-39" value="" style="shape=partialRectangle;overflow=hidden;connectable=0;fillColor=none;top=0;left=0;bottom=0;right=0;" vertex="1" parent="5UsDiWK79urw-ou_i29c-38">
          <mxGeometry width="30" height="30" as="geometry">
            <mxRectangle width="30" height="30" as="alternateBounds" />
          </mxGeometry>
        </mxCell>
        <mxCell id="5UsDiWK79urw-ou_i29c-40" value="`code` varchar(64) DEFAULT &#39;&#39; COMMENT &#39;简称&#39;" style="shape=partialRectangle;overflow=hidden;connectable=0;fillColor=none;top=0;left=0;bottom=0;right=0;align=left;spacingLeft=6;" vertex="1" parent="5UsDiWK79urw-ou_i29c-38">
          <mxGeometry x="30" width="330" height="30" as="geometry">
            <mxRectangle width="330" height="30" as="alternateBounds" />
          </mxGeometry>
        </mxCell>
        <mxCell id="5UsDiWK79urw-ou_i29c-41" value="" style="shape=partialRectangle;collapsible=0;dropTarget=0;pointerEvents=0;fillColor=none;points=[[0,0.5],[1,0.5]];portConstraint=eastwest;top=0;left=0;right=0;bottom=0;" vertex="1" parent="5UsDiWK79urw-ou_i29c-28">
          <mxGeometry y="150" width="360" height="30" as="geometry" />
        </mxCell>
        <mxCell id="5UsDiWK79urw-ou_i29c-42" value="" style="shape=partialRectangle;overflow=hidden;connectable=0;fillColor=none;top=0;left=0;bottom=0;right=0;" vertex="1" parent="5UsDiWK79urw-ou_i29c-41">
          <mxGeometry width="30" height="30" as="geometry">
            <mxRectangle width="30" height="30" as="alternateBounds" />
          </mxGeometry>
        </mxCell>
        <mxCell id="5UsDiWK79urw-ou_i29c-43" value="`status` tinyint(1) COMMENT &#39;状态 -1:删除; 0:正常; 1:禁用;&#39;" style="shape=partialRectangle;overflow=hidden;connectable=0;fillColor=none;top=0;left=0;bottom=0;right=0;align=left;spacingLeft=6;" vertex="1" parent="5UsDiWK79urw-ou_i29c-41">
          <mxGeometry x="30" width="330" height="30" as="geometry">
            <mxRectangle width="330" height="30" as="alternateBounds" />
          </mxGeometry>
        </mxCell>
        <mxCell id="5UsDiWK79urw-ou_i29c-44" value="" style="shape=partialRectangle;collapsible=0;dropTarget=0;pointerEvents=0;fillColor=none;points=[[0,0.5],[1,0.5]];portConstraint=eastwest;top=0;left=0;right=0;bottom=0;" vertex="1" parent="5UsDiWK79urw-ou_i29c-28">
          <mxGeometry y="180" width="360" height="30" as="geometry" />
        </mxCell>
        <mxCell id="5UsDiWK79urw-ou_i29c-45" value="" style="shape=partialRectangle;overflow=hidden;connectable=0;fillColor=none;top=0;left=0;bottom=0;right=0;" vertex="1" parent="5UsDiWK79urw-ou_i29c-44">
          <mxGeometry width="30" height="30" as="geometry">
            <mxRectangle width="30" height="30" as="alternateBounds" />
          </mxGeometry>
        </mxCell>
        <mxCell id="5UsDiWK79urw-ou_i29c-46" value="`created_at` datetime COMMENT &#39;创建时间&#39;" style="shape=partialRectangle;overflow=hidden;connectable=0;fillColor=none;top=0;left=0;bottom=0;right=0;align=left;spacingLeft=6;" vertex="1" parent="5UsDiWK79urw-ou_i29c-44">
          <mxGeometry x="30" width="330" height="30" as="geometry">
            <mxRectangle width="330" height="30" as="alternateBounds" />
          </mxGeometry>
        </mxCell>
        <mxCell id="5UsDiWK79urw-ou_i29c-47" value="" style="shape=partialRectangle;collapsible=0;dropTarget=0;pointerEvents=0;fillColor=none;points=[[0,0.5],[1,0.5]];portConstraint=eastwest;top=0;left=0;right=0;bottom=0;" vertex="1" parent="5UsDiWK79urw-ou_i29c-28">
          <mxGeometry y="210" width="360" height="30" as="geometry" />
        </mxCell>
        <mxCell id="5UsDiWK79urw-ou_i29c-48" value="" style="shape=partialRectangle;overflow=hidden;connectable=0;fillColor=none;top=0;left=0;bottom=0;right=0;" vertex="1" parent="5UsDiWK79urw-ou_i29c-47">
          <mxGeometry width="30" height="30" as="geometry">
            <mxRectangle width="30" height="30" as="alternateBounds" />
          </mxGeometry>
        </mxCell>
        <mxCell id="5UsDiWK79urw-ou_i29c-49" value="`updated_at` datetime COMMENT &#39;编辑时间&#39;" style="shape=partialRectangle;overflow=hidden;connectable=0;fillColor=none;top=0;left=0;bottom=0;right=0;align=left;spacingLeft=6;" vertex="1" parent="5UsDiWK79urw-ou_i29c-47">
          <mxGeometry x="30" width="330" height="30" as="geometry">
            <mxRectangle width="330" height="30" as="alternateBounds" />
          </mxGeometry>
        </mxCell>
        <mxCell id="5UsDiWK79urw-ou_i29c-50" value="" style="shape=partialRectangle;collapsible=0;dropTarget=0;pointerEvents=0;fillColor=none;points=[[0,0.5],[1,0.5]];portConstraint=eastwest;top=0;left=0;right=0;bottom=0;" vertex="1" parent="5UsDiWK79urw-ou_i29c-28">
          <mxGeometry y="240" width="360" height="30" as="geometry" />
        </mxCell>
        <mxCell id="5UsDiWK79urw-ou_i29c-51" value="" style="shape=partialRectangle;overflow=hidden;connectable=0;fillColor=none;top=0;left=0;bottom=0;right=0;" vertex="1" parent="5UsDiWK79urw-ou_i29c-50">
          <mxGeometry width="30" height="30" as="geometry">
            <mxRectangle width="30" height="30" as="alternateBounds" />
          </mxGeometry>
        </mxCell>
        <mxCell id="5UsDiWK79urw-ou_i29c-52" value="`deleted_at` datetime COMMENT &#39;删除时间&#39;" style="shape=partialRectangle;overflow=hidden;connectable=0;fillColor=none;top=0;left=0;bottom=0;right=0;align=left;spacingLeft=6;" vertex="1" parent="5UsDiWK79urw-ou_i29c-50">
          <mxGeometry x="30" width="330" height="30" as="geometry">
            <mxRectangle width="330" height="30" as="alternateBounds" />
          </mxGeometry>
        </mxCell>
        <mxCell id="5UsDiWK79urw-ou_i29c-59" value="" style="edgeStyle=entityRelationEdgeStyle;fontSize=12;html=1;endArrow=ERmandOne;startArrow=ERmandOne;rounded=0;exitX=0;exitY=0.5;exitDx=0;exitDy=0;entryX=1;entryY=0.5;entryDx=0;entryDy=0;" edge="1" parent="1" source="5UsDiWK79urw-ou_i29c-29" target="F_34b5jo6EodDK-DppNW-45">
          <mxGeometry width="100" height="100" relative="1" as="geometry">
            <mxPoint x="510" y="800" as="sourcePoint" />
            <mxPoint x="500" y="400" as="targetPoint" />
          </mxGeometry>
        </mxCell>
        <mxCell id="5UsDiWK79urw-ou_i29c-60" value="1:1" style="edgeLabel;html=1;align=center;verticalAlign=middle;resizable=0;points=[];" vertex="1" connectable="0" parent="5UsDiWK79urw-ou_i29c-59">
          <mxGeometry x="-0.2669" relative="1" as="geometry">
            <mxPoint as="offset" />
          </mxGeometry>
        </mxCell>
      </root>
    </mxGraphModel>
  </diagram>
</mxfile>
